<svg xmlns="http://www.w3.org/2000/svg" xmlns:xlink="http://www.w3.org/1999/xlink" width="581.5" height="228.625" viewBox="0 0 581.5 228.625">
  <defs>
    <clipPath id="clip-path">
      <rect id="Rectangle_70" data-name="Rectangle 70" width="18" height="22.645" fill="none"/>
    </clipPath>
    <clipPath id="clip-path-2">
      <rect id="Rectangle_71" data-name="Rectangle 71" width="13" height="21.625" fill="none"/>
    </clipPath>
    <clipPath id="clip-path-3">
      <rect id="Rectangle_72" data-name="Rectangle 72" width="20" height="34.512" fill="none"/>
    </clipPath>
  </defs>
  <g id="Group_71" data-name="Group 71" transform="translate(0 46)">
    <g id="Group_70" data-name="Group 70" clip-path="url(#clip-path)">
      <path id="Path_1538" data-name="Path 1538" d="M.487,11.628a3.321,3.321,0,0,0,.9.32c.549.187,1.093.387,1.644.564a4.584,4.584,0,0,1,2.72,2.329,17.241,17.241,0,0,1,1.019,2.292c.385,1.093.669,2.221,1.027,3.324a7.526,7.526,0,0,0,.66,1.6,2.346,2.346,0,0,0,.746.581,1.152,1.152,0,0,0,1.359-.793,19.163,19.163,0,0,0,.6-2.627,7.6,7.6,0,0,1,3.075-4.971,15.091,15.091,0,0,1,2.623-1.625c1.455-.692,1.563-1.964.028-2.643A7.048,7.048,0,0,1,13.11,5.551c-.4-1.153-.736-2.333-1.1-3.5A9.51,9.51,0,0,0,11.54.583a1.271,1.271,0,0,0-.731-.555.853.853,0,0,0-.957.491,6.861,6.861,0,0,0-.462,1.061c-.361.965-.686,1.944-1.065,2.9A9.886,9.886,0,0,1,5.7,8.257,5.8,5.8,0,0,1,1.9,9.941a4.488,4.488,0,0,0-1.474.373c-.2.077-.45.4-.421.563a1.307,1.307,0,0,0,.485.751m6.8-2.448A14.47,14.47,0,0,0,9.05,6.911c.507-.806.869-1.7,1.494-2.96,1.025,3.016,1.982,5.614,4.662,7.219-.894.642-1.7,1.131-2.4,1.748a14.9,14.9,0,0,0-2.1,2.236,23.063,23.063,0,0,0-1.464,2.631c-.582-1.342-1.062-2.559-1.632-3.731a6.946,6.946,0,0,0-2.6-2.91c.848-.725,1.621-1.285,2.268-1.965" transform="translate(0 0)"/>
    </g>
  </g>
  <g id="Group_73" data-name="Group 73" transform="translate(287.536 207)">
    <g id="Group_72" data-name="Group 72" transform="translate(0 0)" clip-path="url(#clip-path-2)">
      <path id="Path_1539" data-name="Path 1539" d="M12.579,10.493a4.5,4.5,0,0,0-.766-.566,6.5,6.5,0,0,1-2.923-4.1c-.3-1.3-.5-2.623-.717-3.939C8.1,1.45,8.138.991,8.038.563A.819.819,0,0,0,6.655.273a8.908,8.908,0,0,0-.718,1.338C5.206,3.1,4.509,4.6,3.752,6.073A10.119,10.119,0,0,1,1.277,9.207a7.926,7.926,0,0,0-1.052,1.1.735.735,0,0,0,.13,1.17C2.08,12.436,2.7,14.1,3.223,15.825c.385,1.281.713,2.58,1.1,3.861a5.95,5.95,0,0,0,.584,1.4,1.056,1.056,0,0,0,1.875-.065,7.366,7.366,0,0,0,.567-1.613c.208-.8.314-1.63.545-2.424a6.763,6.763,0,0,1,3.617-4.466,4.687,4.687,0,0,0,1-.554A3.038,3.038,0,0,0,13,11.2a3.56,3.56,0,0,0-.421-.708m-5.241,3.4a24.8,24.8,0,0,0-1.669,3.541c-1-2.508-1.231-5.3-3.594-7.064A16.824,16.824,0,0,0,6.431,4.374,31.343,31.343,0,0,0,7.85,8.13a24.6,24.6,0,0,0,2.082,2.889,25.315,25.315,0,0,0-2.594,2.869" transform="translate(0 0)"/>
    </g>
  </g>
  <g id="Group_75" data-name="Group 75" transform="translate(561.5)">
    <g id="Group_74" data-name="Group 74" clip-path="url(#clip-path-3)">
      <path id="Path_1540" data-name="Path 1540" d="M2.541,15.191A10.423,10.423,0,0,0,.4,16.1a1.318,1.318,0,0,0-.4.99c0,.183.357.5.588.54a15.9,15.9,0,0,0,2.314.192,30.381,30.381,0,0,1,4.644-.061,8.226,8.226,0,0,1,.434,3.29c.167,3.232.249,6.469.423,9.7a17.193,17.193,0,0,0,.474,2.878c.108.474.467,1,1,.863a1.69,1.69,0,0,0,.99-.938,7.929,7.929,0,0,0,.449-2.281c.21-3.914.369-7.831.551-11.747.036-.766.1-1.531.144-2.235,1.737-.578,3.325-1.067,4.884-1.639a16.138,16.138,0,0,0,2.38-1.139,1.244,1.244,0,0,0,.671-1.488,1.351,1.351,0,0,0-1.375-.9,9.6,9.6,0,0,0-1.468.012c-1.363.146-2.719.352-4.084.484a12.8,12.8,0,0,1-1.652-.046c-.249-1.33-.434-2.491-.686-3.638Q9.921,5.494,9.1,2.064C8.893,1.226,8.659.356,7.705,0c-.945,1.329-.959,1.33-.844,2.913.2,2.738.434,5.474.624,8.213a3.869,3.869,0,0,1-.276,2.711c-1.485.426-3.086.86-4.669,1.353" transform="translate(0)"/>
    </g>
  </g>
  <path id="Path_1536" data-name="Path 1536" d="M10.011,384.01a5.512,5.512,0,0,0-.515-1.259c-.4.5-.762.76-.863,1.1-.394,1.339-.719,2.7-1.046,4.056a21.576,21.576,0,0,1-1.225,4.487c-2.1.363-4.328-.24-6.363,1.229,1.566,1.75,3.893.959,5.651,2.115-.325,1.641-.715,3.309-.972,5-.263,1.728-1.071,3.458-.13,5.493a4.128,4.128,0,0,0,1.765-2.854c.513-1.821.939-3.666,1.43-5.493.186-.691.452-1.362.646-1.938,1.582,0,2.975.033,4.364-.014a8.983,8.983,0,0,0,1.913-.324c.366-.095.453-.806.143-1.039a3.258,3.258,0,0,0-1.039-.618c-.953-.249-1.933-.391-2.895-.607-.621-.14-1.332-.11-1.772-.825.074-.436.16-.918.237-1.4a28.032,28.032,0,0,0,.669-7.106" transform="translate(218 -371.718)"/>
</svg>