<svg xmlns="http://www.w3.org/2000/svg" width="49.202" height="44.418" viewBox="0 0 49.202 44.418">
  <g id="Doodle_element40" transform="translate(-23.817 -20.122) rotate(-22)">
    <path id="Path_160" data-name="Path 160" d="M27.8,48.173q4.135,6.464,7.85,13.185,1.037,1.881,2.04,3.773a1.1,1.1,0,0,1-.165,1.255,2.1,2.1,0,0,1-1.5.473,3.893,3.893,0,0,1-3.3-1.82q-3.588-6.782-7.609-13.326-1.123-1.831-2.283-3.639A1.1,1.1,0,0,1,23,46.82a2.1,2.1,0,0,1,1.5-.473,4.3,4.3,0,0,1,2.025.564l.556.374a2.541,2.541,0,0,1,.72.875Zm-14.52,8.618,6.664,5.339,6.7,5.366,3.766,3.017a2.144,2.144,0,0,1,.837,1.356,1.158,1.158,0,0,1-.693,1.1,2.939,2.939,0,0,1-1.786.157,4.5,4.5,0,0,1-1.912-.872l-6.664-5.339-6.7-5.366L9.729,58.534a2.14,2.14,0,0,1-.837-1.355,1.158,1.158,0,0,1,.693-1.1,2.938,2.938,0,0,1,1.786-.157,4.531,4.531,0,0,1,1.912.872ZM46.794,44.072q.69,4.282,1.208,8.59t.852,8.674q.19,2.443.323,4.895a1.622,1.622,0,0,1-.786,1.356,2.79,2.79,0,0,1-1.843.309c-1.237-.225-2.59-1.077-2.665-2.458q-.233-4.332-.645-8.651t-1.009-8.656Q41.9,45.7,41.5,43.28a1.6,1.6,0,0,1,.786-1.356,2.789,2.789,0,0,1,1.843-.309,3.52,3.52,0,0,1,1.9.906l.41.481a1.985,1.985,0,0,1,.356,1.07Z" transform="translate(0)" fill="#0a0a0a"/>
  </g>
</svg>
