<?xml version="1.0" encoding="UTF-8" standalone="no"?>
<!-- Created with Inkscape (http://www.inkscape.org/) -->

<svg
   xmlns:dc="http://purl.org/dc/elements/1.1/"
   xmlns:cc="http://creativecommons.org/ns#"
   xmlns:rdf="http://www.w3.org/1999/02/22-rdf-syntax-ns#"
   xmlns:svg="http://www.w3.org/2000/svg"
   xmlns="http://www.w3.org/2000/svg"
   version="1.1"
   width="510.95932"
   height="278.34607"
   id="svg2985">
  <metadata
     id="metadata2991">
    <rdf:RDF>
      <cc:Work
         rdf:about="">
        <dc:format>image/svg+xml</dc:format>
        <dc:type
           rdf:resource="http://purl.org/dc/dcmitype/StillImage" />
        <dc:title></dc:title>
      </cc:Work>
    </rdf:RDF>
  </metadata>
  <defs
     id="defs2989" />
  <path
     d="m 66.899371,273.03016 c -4.9912,-1.7441 -2.9686,-9.7214 4.918,-19.3969 7.2096,-8.845 24.3397,-25.1707 40.295499,-38.4033 20.1198,-16.6858 57.8051,-43.6952 82.0074,-58.7753 21.0548,-13.1191 32.8726,-20.0039 51.91,-30.242 12.3762,-6.6559 22.4811,-11.8066 32.4658,-16.5487 6.4951,-3.0847 24.5714,-11.099302 26.4708,-11.736402 0.6803,-0.2282 3.8739,-1.4964 7.097,-2.8182 12.65,-5.188 27.8438,-10.4902 47.391,-16.5381 13.1641,-4.073 25.8913,-7.2601 34.5651,-8.6559 5.7783,-0.9298 15.6822,-1.9706 21.554,-2.2651 5.4187,-0.2717 9.1705,-1.4003 11.3027,-3.3998 0.506,-0.4746 2.7534,-1.9268 4.9942,-3.2272 11.1502,-6.4707 36.5899,-22.0218 44.1543,-26.99132 6.8788,-4.51904 15.2607,-10.96547 18.7712,-14.43676 1.9425,-1.92082 4.7328,-5.29089 5.8632,-7.08156 0.7427,-1.17653 0.6433,-1.38155 -1.09,-2.24717 -1.8771,-0.9374702 -4.2031,-1.1746802 -9.7396,-0.9932202 -15.7769,0.5171 -41.8899,5.7117702 -79.5131,15.8175702 -19.1726,5.14988 -43.4228,12.79709 -66.8961,21.09546 -25.0798,8.8663 -69.5966,26.2332 -84.3758,32.9166 -3.9034,1.7652 -8.753,3.9185 -10.777,4.785 -13.2998,5.6944 -17.4549,7.5962 -35.3537,16.181702 -21.8123,10.4627 -57.1099,28.314 -66.3704,33.5659 -1.5903,0.9019 -6.8539,3.766 -11.697,6.3647 -4.8431,2.5986 -10.9347,5.944 -13.5369,7.4342 -25.783699,14.7652 -38.233799,22.2774 -58.616299,35.3677 -11.891,7.6369 -16.1945,10.2951 -26.1539,16.1548 -8.73614,5.1401 -19.25217,12.6744 -22.61884,16.2057 -2.32671,2.4404 -3.76881,4.4424 -3.57111,4.9576 0.0773,0.2013 0.64926,0.4936 1.27112,0.6494 0.62187,0.1559 1.51509,0.4559 1.98494,0.6667 0.77462,0.3475 0.85427,0.4901 0.85427,1.5296 0,1.7594 -0.59334,2.15 -3.24828,2.1386 -1.6631702,-0.01 -2.4491502,-0.1467 -3.5262502,-0.6264 -1.97009,-0.8773 -2.68883,-1.8205 -2.68561,-3.5245 0.009,-4.5319 6.0280302,-10.6823 18.1507002,-18.5455 11.19126,-7.2591 33.86006,-21.7743 40.46296,-25.9092 17.0224,-10.6598 46.347599,-27.9993 60.686599,-35.883 21.0022,-11.5472 30.2004,-16.3679 52.3402,-27.431 36.1436,-18.060802 57.2945,-27.990002 80.5645,-37.820502 2.7468,-1.1604 9.4299,-4.0012 14.8512,-6.3129 5.4214,-2.3117 12.3793,-5.1967 15.462,-6.4112 17.1505,-6.7563 67.134,-25.04559 74.9595,-27.42803 1.5179,-0.46214 7.0149,-2.1996 12.2155,-3.86101 5.2005,-1.66141 10.4582,-3.25887 11.6836,-3.54991 1.2255,-0.29105 2.6481,-0.75751 3.1614,-1.0366 1.1362,-0.61771 25.6699,-7.30649 39.3099,-10.71728 12.0803,-3.02079 33.5798,-7.7675402 40.4794,-8.9372102 10.0179,-1.69832 16.2772,-2.21738 25.2339,-2.09252 5.8538,0.0816 6.3993,0.12989 7.5695,0.6701 1.5299,0.7063 2.5195,1.46094 3.1237,2.382 0.5619,0.85647 0.8595,3.0826102 0.623,4.6596302 -0.4987,3.32566 -7.6604,10.93304 -16.6605,17.69718 -9.5054,7.144 -15.5779,10.95025 -52.2863,32.77305 -5.0961,3.0296 -9.2637,5.5693 -9.2614,5.6438 0,0.074 1.1312,0.6574 2.5086,1.2953 4.6324,2.1453 6.0248,4.0732 5.9966,8.3029 -0.041,6.1312 -3.5236,11.8133 -13.6141,22.211102 -2.3149,2.3854 -5.0822,5.2387 -6.1497,6.3407 l -1.9408,2.0037 2.5686,1.4134 c 5.2772,2.9039 7.1438,6.112 6.0224,10.3504 -0.6843,2.5863 -2.9703,5.9293 -6.9872,10.2177 -3.4942,3.7305 -15.6642,12.6533 -24.6823,18.0965 -9.3181,5.6244 -23.2699,13.1552 -26.8447,14.4899 -0.9582,0.3577 -4.7433,1.9515 -8.4113,3.5416 -13.6129,5.9014 -20.2593,8.2074 -34.5315,11.981 -5.2045,1.376 -10.0894,2.7451 -10.8555,3.0424 -3.2964,1.2792 -5.6342,2.5917 -22.9211,12.8695 -8.966,5.3306 -16.9622,9.8337 -24.7739,13.9516 -2.5661,1.3527 -4.6657,2.537 -4.6657,2.6318 0,0.3023 1.2207,0.7421 2.9355,1.0576 2.8105,0.5171 13.032,0.4486 16.1214,-0.108 11.104,-2.0008 34.7785,-9.7301 50.1095,-16.36 3.1563,-1.365 6.7755,-2.8453 8.0427,-3.2896 3.0412,-1.0664 6.9973,-3.0555 9.452,-4.7525 1.0903,-0.7537 3.6169,-2.9286 5.6147,-4.8332 7.3757,-7.0316 13.9959,-12.0803 22.9853,-17.5291 3.5022,-2.1228 13.5454,-7.1893 18.0055,-9.0833 4.3587,-1.8509 8.4098,-2.3154 10.5484,-1.2095 1.0172,0.526 1.8035,1.8473 1.8047,3.033 0,4.6696 -19.2367,16.469 -50.204,30.7863 -4.0108,1.8544 -6.5817,4.4354 -8.672,8.7062 -4.7442,9.6931 -0.1839,15.464 14.0605,17.7931 8.8516,1.4473 24.0546,0.5971 30.5967,-1.711 0.618,-0.2181 1.7313,-0.9428 2.474,-1.6106 4.4711,-4.0199 19.6233,-8.5476 28.6052,-8.5476 2.692,0 3.262,0.077 4.1116,0.5544 1.0235,0.5752 2.16,1.9758 2.16,2.6619 0,1.6492 -6.4825,4.5309 -16.4374,7.3069 -4.1433,1.1554 -4.843,1.4324 -4.4961,1.7801 0.4141,0.4152 12.0267,0.3849 21.4592,-0.056 5.2768,-0.2466 11.172,-0.4057 13.1004,-0.3534 3.3109,0.09 3.5341,0.1296 4.0085,0.7156 0.3357,0.4148 0.5023,1.0315 0.5023,1.8599 0,1.3672 -0.4296,1.9371 -2.1028,2.7896 l -0.92,0.4687 0.92,0.3737 c 1.1641,0.4728 2.1028,1.335 2.1028,1.9313 0,0.6533 -1.717,1.987 -3.4171,2.6542 -2.1169,0.8308 -6.9561,0.8518 -8.7177,0.038 -0.6745,-0.3117 -1.4324,-0.8812 -1.6842,-1.2654 -0.6618,-1.0101 -0.5793,-2.9105 0.1605,-3.6981 l 0.5824,-0.6199 -0.6247,-0.1398 c -0.3436,-0.077 -7.426,-0.1784 -15.7387,-0.2254 l -15.1141,-0.086 -3.1542,-0.8628 c -2.9409,-0.8044 -3.3499,-0.8529 -6.0457,-0.7167 -1.5902,0.08 -4.6065,0.3833 -6.7027,0.6731 -6.2908,0.87 -11.4519,1.15 -18.0055,0.9769 -13.53,-0.3572 -19.4237,-1.9536 -24.2464,-6.5676 -3.0436,-2.9118 -4.2731,-5.6531 -4.2731,-9.5266 0,-2.778 0.5041,-4.8149 1.8579,-7.5076 0.5684,-1.1305 1.0335,-2.0882 1.0335,-2.1282 0,-0.04 -1.3899,0.5976 -3.0886,1.417 -8.6783,4.1862 -36.2157,14.4087 -46.9991,17.4472 -12.7444,3.5911 -24.139,5.1048 -29.6447,3.9382 -0.9881,-0.2093 -3.1718,-0.9907 -4.8528,-1.7364 -4.1873,-1.8576 -4.4259,-1.8713 -7.3135,-0.4211 -4.6015,2.311 -12.4447,5.449 -18.4954,7.3998 -9.6922,3.1248 -19.7645,4.4528 -26.2352,3.4591 -3.1312,-0.4809 -6.9246,-1.6844 -8.9355,-2.8349 -2.8784,-1.6469 -6.0255,-5.2318 -7.5214,-8.5675 -0.2749,-0.6132 -0.6128,-1.1149 -0.7508,-1.1149 -0.138,0 -3.1658,1.7018 -6.7285,3.7817 -6.5028,3.7962 -26.2341,14.8032 -39.7286,22.1624 -13.5411,7.3846 -25.0865,13.429 -36.1423,18.9218 -24.840299,12.3412 -33.703099,15.6713 -37.850799,14.2219 z m 6.46,-5.7126 c 7.4111,-2.09 12.7091,-4.4417 35.596499,-15.8007 21.7819,-10.8104 40.9439,-21.1367 70.0503,-37.75 l 7.7542,-4.4258 -0.244,-2.6278 c -0.2838,-3.0567 0.1461,-6.7093 1.4163,-12.0318 2.5945,-10.8725 8.7313,-22.6411 17.0951,-32.7839 1.6094,-1.9517 3.5637,-4.3978 4.343,-5.4357 1.4533,-1.9356 3.9664,-4.0083 8.932,-7.3668 6.0298,-4.0784 7.4903,-4.6952 10.5983,-4.4761 2.7086,0.191 4.7204,0.9899 6.4321,2.5542 1.3949,1.2749 2.2991,2.4052 6.627,8.2845 4.5915,6.2371 11.0348,13.274 12.1543,13.274 0.5778,0 4.4283,-2.2744 19.6503,-11.6071 5.7827,-3.5454 15.9551,-9.7376 22.6053,-13.7605 6.6502,-4.0228 16.3829,-9.9593 21.6282,-13.1922 5.2453,-3.233 12.8154,-7.8664 16.8226,-10.2966 4.0071,-2.4302 13.8504,-8.4189 21.874,-13.3082 12.6855,-7.730202 50.1885,-30.540302 55.2725,-33.618002 l 1.7818,-1.0787 -1.1247,-0.088 c -2.1629,-0.1697 -11.6008,1.0354 -23.3631,2.9832 -9.0059,1.4913 -10.5235,1.8364 -17.321,3.938 -3.1083,0.961 -6.3958,1.8574 -7.3058,1.9919 -0.9099,0.1346 -2.0928,0.4671 -2.6285,0.7389 -0.5358,0.2718 -4.2861,1.5255 -8.334,2.7862 -4.0479,1.2606 -10.9084,3.5674 -15.2455,5.1261 -4.3371,1.5587 -10.133,3.6336 -12.8798,4.6109 -2.7468,0.9774 -6.9459,2.599 -9.3313,3.6036 -2.3854,1.0047 -5.579,2.3026 -7.097,2.884202 -11.9096,4.5636 -42.2298,18.9277 -59.2734,28.0807 -2.4577,1.3198 -6.2262,3.2841 -8.3746,4.365 -2.1483,1.0809 -5.1054,2.7059 -6.5713,3.6111 -1.4659,0.9052 -6.0471,3.6109 -10.1804,6.0126 -4.1333,2.4018 -9.9292,5.8707 -12.8798,7.7088 -2.9505,1.8381 -6.6658,4.1146 -8.256,5.0588 -3.4738,2.0625 -20.2292,12.877 -24.8396,16.0323 -25.3648,17.3591 -48.2351,34.3689 -65.0562,48.3857 -17.472699,14.5598 -33.340699,30.2921 -40.278899,39.9345 -2.4115,3.3514 -4.4167,7.7003 -3.8238,8.2931 0.289,0.2891 0.9852,0.1765 3.7749,-0.6101 z m 145.731899,-45.8648 c 6.7846,-1.2854 11.2393,-2.5906 18.0054,-5.2758 7.5541,-2.9978 10.926,-4.558 11.8521,-5.4841 0.6662,-0.6663 0.6681,-0.6808 0.3336,-2.5873 -0.9042,-5.1534 0.2101,-11.3497 2.8975,-16.1114 2.6006,-4.6079 3.9462,-6.6924 5.9384,-9.1998 1.2636,-1.5903 2.43,-3.1451 2.5922,-3.4552 0.3682,-0.7042 0.2574,-0.7994 -2.3227,-1.9952 -1.0842,-0.5026 -2.6119,-1.3499 -3.3948,-1.8831 -0.7828,-0.5331 -1.5683,-0.9137 -1.7454,-0.8457 -0.1772,0.068 -4.4454,2.6336 -9.485,5.7014 -15.3207,9.3263 -26.2267,15.8545 -38.0768,22.7923 -11.2928,6.6116 -13.8596,8.2647 -14.0051,9.0202 -0.106,0.5504 2.2282,4.0529 3.6455,5.4702 2.2936,2.2937 4.6323,3.5064 8.4179,4.365 2.7667,0.6276 10.737,0.3619 15.3472,-0.5115 z m 40.0761,-15.3914 c 8.7504,-4.3817 17.8681,-9.4855 32.5839,-18.2396 l 6.6838,-3.976 -10.3638,-0.1578 c -5.7795,-0.088 -11.1195,-0.2902 -12.0723,-0.457 -0.9397,-0.1645 -3.3548,-0.7753 -5.367,-1.3573 -2.0121,-0.5819 -3.8706,-0.9907 -4.13,-0.9084 -1.6085,0.5105 -8.1944,9.2773 -10.2237,13.6093 -1.9222,4.1031 -2.4291,6.0226 -2.4422,9.248 -0.011,2.8016 0.2961,4.3371 0.8684,4.3371 0.1498,0 2.1581,-0.9442 4.4629,-2.0983 z m -56.7399,-5.93 c 5.2918,-3.0764 18.0829,-10.6766 28.4246,-16.8893 l 18.8031,-11.2959 -1.9657,-1.9358 c -2.8474,-2.8041 -5.901,-6.5165 -9.9702,-12.1213 -5.7129,-7.8687 -7.6192,-9.2677 -11.0522,-8.1113 -3.153,1.0622 -8.7367,4.7317 -9.7877,6.4323 -0.3179,0.5144 -1.3921,1.6376 -2.387,2.4961 -5.7985,5.003 -12.0934,13.3506 -16.5785,21.9846 -4.4686,8.6022 -6.6928,15.8185 -7.0033,22.7223 l -0.159,3.5332 1.0272,-0.6107 c 0.565,-0.3359 5.3569,-3.1278 10.6487,-6.2042 z m 164.3872,-21.9236 c 10.0171,-4.8297 26.456,-14.5018 30.3596,-17.8625 1.2073,-1.0394 0.686,-1.0408 -2.2458,-0.01 -7.0912,2.5029 -16.6543,7.4623 -24.3251,12.6149 -2.2624,1.5197 -9.3734,6.954 -10.36,7.9172 -0.5218,0.5095 -0.517,0.51 0.6572,0.065 0.6505,-0.2463 3.3119,-1.4743 5.9141,-2.729 z m -69.217,0.7602 c 6.5961,-0.4547 9.2755,-0.9113 11.4748,-1.9552 2.5931,-1.231 33.1951,-21.0778 47.3595,-30.7151 12.6351,-8.5966 40.677,-29.0402 44.0279,-32.0978 l 1.0515,-0.9594 -1.9714,0.1617 c -6.1697,0.5062 -19.3624,2.9703 -22.474,4.1975 -0.8674,0.3422 -3.1148,1.0535 -4.9942,1.5807 -6.0347,1.6929 -15.9507,5.0658 -23.9196,8.1363 -3.6572,1.4091 -14.6566,6.5238 -21.6852,10.0835 -14.9905,7.5922 -31.1076,17.72 -41.6624,26.1803 -6.1968,4.9671 -14.3255,12.2329 -14.3255,12.8047 0,0.4435 1.6925,1.0716 4.1635,1.5452 6.0324,1.1561 15.2164,1.5712 22.9551,1.0376 z m -24.2519,-11.5179 c 11.6511,-9.9428 17.8111,-14.5355 28.3262,-21.1193 15.0723,-9.4372 31.9852,-18.1231 45.5602,-23.3983 10.5626,-4.1046 21.0201,-7.4145 32.4883,-10.283 8.2496,-2.0635 13.478,-3.0429 19.8195,-3.7129 6.4285,-0.6791 7.6284,-0.8942 8.9263,-1.6007 2.4759,-1.3475 11.0206,-9.348102 15.0456,-14.087402 3.3587,-3.9548 4.9453,-6.3169 7.0456,-10.489 l 1.7961,-3.5678 -0.7759,-1.4189 c -0.4268,-0.7804 -1.0221,-1.6809 -1.3229,-2.0011 -0.768,-0.8176 -3.7006,-2.3013 -5.8474,-2.9586 l -1.8121,-0.5547 -3.3135,1.742 c -3.9498,2.0766 -8.33,4.6342 -13.1705,7.6902 -1.9517,1.2322 -11.4735,6.9879 -21.1597,12.7905 -9.6861,5.802702 -25.7727,15.554602 -35.748,21.671002 -34.8934,21.3952 -49.7342,30.4696 -56.6449,34.6354 -22.5244,13.578 -33.3939,20.3751 -33.5787,20.9981 -0.088,0.2985 3.6456,2.3733 4.8993,2.7222 0.9035,0.2515 0.8872,0.2636 9.4665,-7.0577 z m 57.6977,4.5365 c 11.1645,-3.694 27.9206,-10.5704 37.8741,-15.543 23.8942,-11.937 44.6673,-26.9538 48.9344,-35.3746 1.2246,-2.4167 0.7561,-4.083 -1.6707,-5.9416 -2.3385,-1.791 -5.8913,-2.391 -7.9473,-1.3421 -0.5558,0.2835 -3.3011,2.3145 -6.1008,4.5132 -19.0832,14.9873 -49.6971,36.4948 -71.2037,50.0236 -8.9259,5.615 -10.0659,6.4553 -8.7572,6.4553 0.2402,0 4.2323,-1.2559 8.8712,-2.7908 z m 139.7296,67.9027 c -0.8287,-0.417 -0.9769,-1.5795 -0.4191,-3.2868 0.2224,-0.6806 0.4764,-1.7698 0.5645,-2.4204 0.3398,-2.5097 0.9828,-3.2834 2.4795,-2.9841 1.4313,0.2863 1.6804,1.0147 1.4971,4.3766 -0.2089,3.8275 -0.2859,4.0593 -1.4573,4.3846 -1.2532,0.3482 -1.8659,0.3321 -2.6647,-0.07 z"
     id="path2995"
     style="fill:#000000;stroke:none" />
</svg>
