<svg xmlns="http://www.w3.org/2000/svg" viewBox="0 0 280.72 328.93"><path d="M139.36 51.46c.21 4.18.31 11.67.31 22.48l-.09.02c-1.14 2.24-2.32 4.75-3.55 7.51v.02c-1.08-1.32-2.5-2.42-4.24-3.32v.02c-2.36-1.22-4.54-1.83-6.56-1.83-.23 0-.46 0-.69.02l-.07.02c.51-.89 1.02-1.77 1.54-2.63v.02l.15-.27c5.18-8.92 9.56-16.27 13.12-22.05h.09ZM138.61 0c-3.27 0-6.52 1.36-8.84 4.02-.37.43-.75.91-1.13 1.44-5.04 7.06-20.89 42.69-47.54 106.91l.08.03-.09.02-.01.01c-2.44 5.98.42 12.8 6.39 15.26 1.46.6 2.97.89 4.46.89 3.8 0 7.44-1.86 9.64-5.05l.09.02c1 2.93 3.17 5.48 6.23 6.87.93.42 1.88.72 2.85.89l-.09.02c.1.75.25 1.47.45 2.13l-.02.02c1.18 4.62 4.03 7.53 8.53 8.73v.02c1.55.4 2.99.6 4.31.6.72 0 1.4-.06 2.06-.18l.09.02c1.03.37 2.08.55 3.14.55 2.89 0 5.89-1.39 9.01-4.17v.02c1.54-1.39 2.69-3.14 3.33-5.1.93-2.82 1.83-5.54 2.71-8.15l.09.02c1.7 1.1 3.84 1.64 6.41 1.64.57 0 1.16-.03 1.77-.08v.02c4.81-.44 8.31-3.15 10.5-8.15.82-1.86 1.79-4.86 2.93-9l.11-.43c2.32-9.92 4.22-21.2 5.71-33.85l.08-1.37.08.01c.04-.42.06-.84.08-1.23v.02c.34-8.28-2.66-13.51-9-15.71l-.09.02c-.13-6.55-.35-10.84-.65-12.86l-.06.02c-.63-9-2.23-15.78-4.8-20.35-2.09-3.7-4.79-6.31-8.1-7.8l-.09.02c2.16-4.63 1.12-10.3-2.92-13.82a11.685 11.685 0 0 0-7.69-2.88Z" style="fill: rgb(255, 199, 9);"></path><path d="M146.35 53.49c3.28 10.55 5.85 19.5 7.74 26.86l-.11-.41c.82 2.79 3.27 13.62 7.34 32.49 1.36 6.32-2.66 12.56-8.98 13.92-6.32 1.36-12.56-2.66-13.92-8.98-3.94-18.29-6.24-28.55-6.9-30.79l-.11-.41c-1.78-6.96-4.25-15.53-7.42-25.72-1.92-6.18 1.54-12.74 7.71-14.66s12.74 1.54 14.66 7.71Z" style="fill: rgb(255, 199, 9);"></path><path d="M168.14 76.15c4.41 10.55 11 23.97 19.75 40.27 3.06 5.7.92 12.8-4.78 15.86-5.7 3.06-12.8.92-15.86-4.78-9.11-16.96-16.02-31.06-20.72-42.31-2.5-5.97.32-12.83 6.29-15.33s12.83.32 15.33 6.29Z" style="fill: rgb(255, 199, 9);"></path><path d="M174.58 103.38c-3.37 0-6.49.06-9.36.17-6.46.26-11.49 5.71-11.24 12.18.25 6.3 5.44 11.25 11.7 11.25h.48c2.42-.1 5.04-.15 7.87-.16l.09.02c-.6 1.46-.9 3.09-.83 4.78.23 6.26 5.34 11.22 11.6 11.28 3.78.03 7.4.07 10.86.1l-.09.02c-2.29 2.97-2.76 6.48-1.41 10.52v.02c.71 2.14 1.67 3.87 2.88 5.18l-.09.02c-1 .88-2.04 1.79-3.11 2.74l-.69.66c-.25.26-.49.52-.71.77h-.01c-1 1.14-1.82 2.25-2.45 3.36l-.09.02c-2.57 1.75-5.27 3.6-8.08 5.55-5.32 3.68-6.65 10.98-2.97 16.3 2.27 3.29 5.93 5.05 9.64 5.05 2.3 0 4.62-.68 6.65-2.08 5.76-3.99 10.95-7.54 15.57-10.67l-.09.02c6.53-3.35 16.68-9.3 30.48-17.83 2.87-1.77 4.84-4.7 5.39-8.03.34-2.04.38-3.86.1-5.46l-.09.02c5.83-1.91 9.75-3.21 11.76-3.91l-.04.02c5.88-1.79 9.11-4.98 9.69-9.59l-.09.02c3.64-.93 6.35-2.78 8.12-5.55v-.02c3.22-5.01 3.33-9.38.34-13.08l-.09.02c-1.53-2.68-4.29-4.63-8.29-5.86-4.95-1.52-18.91-3.21-41.9-5.07v.02c-21-1.82-38.17-2.73-51.49-2.73ZM110.48 137.3c.97.34 1.82.51 2.55.52-5.17-.08-30.27 3.98-75.3 12.18l-.5.08c-3.96.55-6.43.95-7.41 1.22 5.83-1.61 8.3-5.73 7.4-12.33v-.05c-.81-5.73-3.78-8.94-8.92-9.62 1.3.17 4.81.23 10.54.17 6.44-.06 11.73 5.08 11.83 11.52.1 6.44-5.01 11.76-11.45 11.9-7.06.16-14.95 1.36-23.68 3.62l2.19-.8c6.56-3.18 8.29-7.98 5.19-14.38-.28-.57-.54-1.01-.8-1.31.81.93 2.92 2.66 6.34 5.18l-.21-.15 69.85 49.12c1.01.71 1.91 1.58 2.65 2.58 4.8 6.45 4.05 12.04-2.24 16.77-3.51 2.64-7.59 3.11-12.24 1.42-1.1-.4-2.51-1.01-4.24-1.85l.1.05-58.82-27.7c-1.44-.68-2.73-1.64-3.78-2.84l.49.52-.49-.52c-5.54-6.26-5.32-12.03.66-17.32 3.55-3.13 7.84-3.83 12.88-2.09 1.72.59 4.23 1.72 7.55 3.38l.36.19 29.37 16.06-11.33.05c-5.74 3.21-7.32 7.3-4.73 12.27s-.02-.03-.02-.04c-.04-.08-.05-.1-.04-.07l.08.14c-1.58-2.72-4.28-6.49-8.08-11.32-4-5.08-3.13-12.45 1.96-16.45 5.08-4 12.45-3.13 16.45 1.96 4.48 5.69 7.79 10.36 9.92 14.02l.08.14c.06.11.1.17.1.18.12.22.23.42.34.63 4.42 8.49 2.88 14.83-4.62 19.01a11.73 11.73 0 0 1-11.33.05l-29.37-16.06.36.19c-2.38-1.19-3.93-1.92-4.66-2.17 3.55 1.22 6.96.39 10.23-2.49 5.74-5.07 6.2-10.33 1.38-15.78l-.49-.52-3.29-2.31 58.82 27.7.1.05c1.01.49 1.7.8 2.05.93-3.31-1.2-6.6-.58-9.86 1.87-6.13 4.61-6.95 9.93-2.46 15.96l2.65 2.58-69.82-49.11-.21-.15c-4.84-3.57-8.24-6.49-10.2-8.76-1.07-1.24-1.91-2.5-2.53-3.76-3.7-7.65-1.81-13.29 5.67-16.92.7-.34 1.44-.61 2.19-.8 10.47-2.7 20.14-4.15 29-4.35l.38 23.43c-6.84.07-11.46-.06-13.86-.37-6.63-.87-10.37-4.33-11.22-10.36v-.05c-.95-6.91 2.24-11.38 9.56-13.41 1.98-.55 5.46-1.16 10.46-1.85l-.5.08c46.53-8.47 73.15-12.66 79.86-12.55 1.78.03 3.37.29 4.77.77 6.11 2.12 9.34 8.79 7.22 14.91-2.12 6.11-8.8 9.35-14.91 7.23Z" style="fill: rgb(255, 199, 9);"></path><path d="M89.94 203.47c-.78 4.43-2.29 10.69-4.52 18.78l-.13.44c-13.47 42.35-21.45 68.81-23.93 79.38-1.48 6.3-7.78 10.21-14.08 8.73-6.3-1.48-10.21-7.78-8.73-14.08 2.62-11.16 10.75-38.2 24.41-81.13l-.13.44c2.03-7.38 3.38-12.93 4.03-16.63 1.13-6.37 7.2-10.62 13.58-9.5 6.37 1.13 10.62 7.2 9.5 13.58Z" style="fill: rgb(255, 199, 9);"></path><path d="M90.44 211.76c-2.84 6.58-6.06 16-9.67 28.25v.04c-12.16 40.7-18.68 62.79-19.57 66.28l-.23.79v.03l.08-.3c-1.78 5.85-2.77 9.46-2.98 10.82.89-5.9-1.81-9.81-8.12-11.73l.08.02c-2.98-.93-5.85-.7-8.62.69 2.65-1.33 5.71-1.6 8.56-.76l-3.32 11.23 3.31-11.24c-3.49-1.03-6.29-.61-8.42 1.24.2-.18.51-.51.93-1.01l.27-.31c6.2-6.79 23.52-27.57 51.97-62.34.84-1.02 1.84-1.9 2.97-2.59l6.1 10-6.08-10.01c6.79-4.12 12.23-2.83 16.32 3.88l-.02-.03c2.3 3.75 2.38 7.83.24 12.24-1.01 2.08-3.47 6.09-7.37 12.04l.05-.08c-3.66 5.68-10.5 15.21-20.53 28.59l-.26.34c2.68-3.31 3.04-7.01 1.08-11.1l-17.38-4.46 36.66-26.24 6.82 21.24.92-.04c1.13-.09 2.05-.3 2.76-.64-.5.24-1.41.81-2.75 1.72l.06-.04-23.19 16.01.12-.08c-4.39 3.11-8.88 3.71-13.47 1.8a11.715 11.715 0 0 1-6.91-8.17c-.85-3.68.12-7.54 2.61-10.37 7.03-8.01 17.44-16.46 31.23-25.34 5.44-3.5 12.69-1.94 16.19 3.5 3.5 5.44 1.94 12.69-3.5 16.19-11.95 7.7-20.73 14.74-26.32 21.11l-4.3-18.54c-3.39-1.41-6.42-1.18-9.08.71l.12-.08 23.19-16.01.06-.04c2.31-1.57 4.23-2.73 5.78-3.47 1.93-.93 3.78-1.46 5.56-1.6l.92-.04c4.34-.37 9.21 2.77 11.01 7.71s.08 10.47-4.19 13.53l-36.66 26.24a11.738 11.738 0 0 1-9.73 1.82c-3.35-.86-6.15-3.16-7.65-6.28-2.3-4.81-1.7-9.39 1.83-13.75l-.26.34c9.7-12.94 16.22-22.02 19.59-27.24l.05-.08c3.36-5.12 5.32-8.27 5.89-9.45-1.6 3.3-1.31 6.72.87 10.27l-.02-.03c4.03 6.6 9.31 7.92 15.84 3.95l-6.08-10.01 9.07 7.42c-28.72 35.1-46.32 56.2-52.8 63.3l.27-.31c-1.18 1.39-2.32 2.56-3.4 3.5-4.33 3.77-8.87 4.96-13.6 3.57l3.31-11.24 5.24 10.48c-2.86 1.43-5.81 1.67-8.84.72l.08.02c-6.61-2.01-9.35-6.75-8.22-14.19.38-2.48 1.62-7.19 3.73-14.13l.09-.3v-.03l-.22.79c.97-3.76 7.57-26.14 19.8-67.14v.04c3.86-13.16 7.41-23.46 10.62-30.91 2.56-5.94 9.45-8.68 15.4-6.12 5.94 2.56 8.68 9.45 6.12 15.4Z" style="fill: rgb(255, 199, 9);"></path><path d="M59.28 285.24c24.87-19.15 52.22-38.39 82.06-57.7 5.43-3.52 12.68-1.96 16.2 3.47 3.52 5.43 1.96 12.68-3.47 16.2-29.3 18.96-56.13 37.82-80.49 56.59-5.13 3.95-12.48 2.99-16.43-2.13s-2.99-12.48 2.13-16.43Z" style="fill: rgb(255, 199, 9);"></path><path d="M132.22 235c10.81 5.69 20.44 11.79 28.91 18.3l-.16-.12c9.68 7.18 30.35 23.67 62.01 49.44 5.02 4.09 5.77 11.46 1.69 16.48-4.09 5.02-11.46 5.77-16.48 1.69-31.38-25.56-51.77-41.82-61.17-48.79l-.16-.12c-7.41-5.69-15.92-11.08-25.55-16.15-5.72-3.02-7.92-10.1-4.9-15.83 3.02-5.72 10.1-7.92 15.83-4.9Z" style="fill: rgb(255, 199, 9);"></path><path d="M142.04 235.26c18.63 13.64 41.24 32.6 67.84 56.88 4.78 4.36 5.12 11.77.75 16.55-4.36 4.78-11.77 5.12-16.55.75-25.98-23.72-47.94-42.14-65.88-55.28-5.22-3.82-6.35-11.15-2.53-16.37 3.82-5.22 11.15-6.35 16.37-2.53Z" style="fill: rgb(255, 199, 9);"></path><path d="m154.74 230.01-1.35-1.61 1.35 1.62c1.1 1.58 3.66 4.35 7.69 8.32l-.18-.17c11.78 11.1 31.35 30.06 58.71 56.88 4.62 4.53 4.7 11.95.17 16.57-4.53 4.62-11.95 4.7-16.57.17-27.26-26.72-46.72-45.58-58.38-56.56l-.18-.17c-5.08-4.99-8.59-8.89-10.53-11.69l1.35 1.61c-5.03-6.93-3.71-14.23 1.61-17.92 5.32-3.68 12.62-2.36 16.3 2.96Z" style="fill: rgb(255, 199, 9);"></path><path d="M226.34 314.43c-1.21-3.39-2.87-9.05-4.98-16.99v.04c-18.48-68.52-28.16-104.88-29.03-109.09-.11-.56-.19-1.06-.24-1.52-.64-6.44 4.05-12.18 10.49-12.82s12.18 4.05 12.82 10.49c-.03-.34-.08-.63-.12-.87.78 3.75 10.35 39.66 28.72 107.71v.04c1.96 7.32 3.43 12.37 4.42 15.15 2.17 6.09-1.01 12.8-7.1 14.97s-12.8-1.01-14.97-7.1Z" style="fill: rgb(255, 199, 9);"></path><path d="M214.02 171.7c.33 2.75.98 6.12 1.96 10.12l.05.23c.9 4.07 3.89 15.97 8.98 35.72v-.03c.53 2.06 3.58 15.05 9.13 38.97 1.46 6.3-2.46 12.6-8.76 14.06-6.3 1.46-12.6-2.46-14.06-8.76-5.51-23.72-8.5-36.51-8.99-38.38v-.03c-5.16-20-8.22-32.18-9.17-36.51l.05.23c-1.18-4.88-2-9.15-2.44-12.81-.78-6.42 3.79-12.26 10.22-13.04 6.42-.78 12.26 3.79 13.04 10.22Z" style="fill: rgb(255, 199, 9);"></path><path d="M202.3 188.08c0 2.95.84 8.13 2.53 15.55l-.03-.12c2.75 11.52 7.09 28.56 13.02 51.11 1.64 6.26-2.1 12.66-8.35 14.31-6.26 1.64-12.66-2.1-14.31-8.35-5.97-22.7-10.35-39.91-13.15-51.63l-.03-.12c-2.08-9.14-3.12-16.06-3.12-20.77 0-6.47 5.25-11.71 11.72-11.71 6.47 0 11.71 5.25 11.71 11.72Z" style="fill: rgb(255, 199, 9);"></path><path d="m192.43 195.04.02.73-.02-.73c.13 2.07.98 5.87 2.54 11.37l-.08-.25c7.77 25.18 13.67 44.8 17.69 58.86 1.78 6.22-1.82 12.71-8.04 14.49-6.22 1.78-12.71-1.82-14.49-8.04-3.98-13.89-9.83-33.35-17.56-58.4l-.08-.25c-2.02-7.12-3.15-12.55-3.39-16.31l-.02-.73c-.38-5.73 4.53-11.29 10.98-11.69 6.46-.4 12.02 4.5 12.42 10.96ZM143.89 106.3c-1.18 0-2.42.13-3.71.39-1.31.27-2.79.69-4.44 1.27v.02c-4.66 1.59-9.24 3.23-13.77 4.93l-.09.02c-2.43.13-4.82 1.03-6.79 2.66l-.09.02c-2.11.82-4.21 1.66-6.3 2.51l-.04.02c-18.74 7.75-30.05 12.95-33.95 15.59-2.34 1.58-4.02 3.45-5.04 5.59v.02a11.583 11.583 0 0 0-1.06 6.37v.1c.88 7.25 4.66 10.88 11.36 10.88.83 0 1.71-.06 2.64-.17l.65-.12.09.02a11.69 11.69 0 0 0 3.88 7.58l-.09.02c-2.49 2.73-4.25 4.87-5.29 6.44v.02c-1.49 2.22-2.33 4.45-2.54 6.69l-.09.02c-1.57 8.4 2.14 13.79 11.12 16.17.89.24 1.83.41 2.82.53h.02c.14.02.29.03.43.05l-.09.02c.54.09 1.1.17 1.69.22v.02c.93.07 2.35.11 4.26.11 3.5 0 8.64-.14 15.43-.41l.09.02-8.29 17.29c-2.55 5.32-.74 11.71 4.21 14.9 1.96 1.26 4.16 1.87 6.35 1.87 3.36 0 6.67-1.44 8.97-4.17l4.23-5.03-.09.02a12.12 12.12 0 0 0 2.94-2.35l33.51-36.77c4.32-4.74 4.03-12.06-.65-16.44a11.674 11.674 0 0 0-8.01-3.17c-3.07 0-6.14 1.2-8.44 3.59-.42.43-1.11 1.12-2.09 2.07l-.09.02c-2.06.43-4.14 1.55-6.24 3.35-.74.64-1.83 1.67-3.25 3.09l-.5.52c-.1.11-.2.23-.3.34v.02c-2.62-2.01-5.89-3.06-9.82-3.15h-.83c-5.09.26-9.52.47-13.32.62v.02l35.3-36.87.05-.05c2.41-2.54 4.21-4.78 5.4-6.73 2.4-3.91 3.12-7.76 2.15-11.53-.63-2.45-2.04-4.62-4-6.2-2.35-1.89-5.1-2.83-8.26-2.83Z" style="fill: rgb(255, 199, 9);"></path><path d="M185.82 155.54c.56.59 1.18 1.12 1.84 1.58l-.09.02c-.66-.43-1.27-.96-1.84-1.59h.09Zm-42.92 2.58-.69.11v.02s.04-.08.06-.11l-.09.02c.21-.02.42-.03.63-.04h.09Zm-31.26 62.24c.08.19.15.39.21.58l-.14.02c-.05-.21-.11-.4-.17-.6h.09Zm.37 2.15Zm57.76-96.94c-5.89 0-21.45 1.91-46.67 5.74l-.09.02c-15.94.73-29.93 2.08-41.96 4.06-2.67.44-5 1.76-6.71 3.62l-.09.02c-6.63.97-11.14 1.77-13.55 2.39a11.716 11.716 0 0 0 4.86 22.9c6.38-1.07 12.47-2.08 18.27-3.03l-.09.02c5.61-.78 12.49-1.67 20.63-2.67l-.09.02 2.41-.02.09.02a841.83 841.83 0 0 1-8.18 5.85c-.75.53-1.44 1.15-2.04 1.84-5.71 6.52-5.4 12.56.94 18.11v.02c1.29 1.12 2.79 1.98 4.51 2.6 1.28.46 2.62.69 3.97.69.63 0 1.26-.05 1.89-.15l15.03-2.46.09.02c-.15.24-.29.51-.41.78-1.72 3.63-2.1 6.78-1.13 9.44l-.09.02c-15.76 9.81-25.12 16.03-28.07 18.68v.02c-4.93 4.41-6.21 9.16-3.83 14.26l-.09.02c.84 2.81 2.37 4.93 4.58 6.34l-.09.02-1.58.82a11.713 11.713 0 0 0-5.73 13.79 11.713 11.713 0 0 0 12.46 8.22l37.85-4.1.02.02c8.25-.77 14.16-1.29 17.71-1.57l-.09.02c1.22-.02 2.48-.03 3.79-.06.71-.01 1.43-.09 2.13-.23 3.96-.8 6.74-2.45 8.32-4.95l.09.02c1.16.97 2.38 2.07 3.66 3.31.45.43.93.83 1.43 1.18l-.09.02c2.92 2.87 11.73 13.21 26.41 31.01 2.31 2.8 5.66 4.26 9.04 4.26 2.36 0 4.74-.71 6.8-2.18 5.01-3.58 6.4-10.42 3.17-15.66-4.62-7.52-23.11-31.41-55.48-71.67l-.09.02c2.69-1.63 5.47-3.32 8.36-5.05 1.02-.61 1.94-1.38 2.73-2.27 2.93-3.31 3.92-7 2.97-11.07v-.03c-.38-1.6-.9-2.99-1.55-4.17l-.09.02c2.85-4.26 3.11-8.27.78-12.02l-.09.02c-.76-2.09-1.95-3.72-3.56-4.92l-.09.02c.5-.01.98-.02 1.46-.02 7.29 0 12.21.19 14.75.58l-.09.02c1.58.75 3.33 1.15 5.11 1.15s3.58-.41 5.28-1.26c5.77-2.92 8.08-9.97 5.16-15.75-1.81-3.58-5-5.87-9.57-6.88-1.76-.39-4.57-.68-8.42-.87l-.09.02c-1.43-5.09-5.12-7.96-11.09-8.62-1.16-.13-2.71-.2-4.66-.23l-.09.02s-.09-.02-.13-.02l-.02.02c-.28-.02-.59-.04-.94-.04Z" style="fill: rgb(255, 199, 9);"></path><path d="M86.99 161.21c-4.55-2.68-15.77-6.11-33.66-10.31-5.31-1.25-9.06-5.99-9.04-11.45s3.81-10.18 9.13-11.38c17.43-3.95 39.64-3.73 66.64.65l1.01.21c.18.05.34.09.49.13h-.01c8.79 2.43 12.16 7.62 10.13 15.57-1.01 3.93-3.65 6.92-7.92 8.98-.51.25-1.05.49-1.63.72-1.06.43-2.18.7-3.32.8l-33.66 3.1-.41.03c-.07 0-.12 0-.16.01 5.75-.66 8.43-4.35 8.04-11.07v-.02c-.12-2.01-.73-3.79-1.83-5.35.62.88 1.12 1.85 1.48 2.87-1.08-3.07-2.82-5.06-5.22-5.96.59.22 1.81.51 3.65.85l-.57-.09c20.71 2.84 32.79 4.71 36.24 5.61h-.02c.74.19 1.4.4 1.99.64l-2.14-.63c1.27.25 2.45.56 3.56.93 6.28 2.13 10.07 6.09 11.38 11.85l.15.78c.63 4.06-.3 8.07-2.8 12.01-1.36 2.15-3.24 4.32-5.63 6.52l-.94.78c-24.51 18.19-38.19 29.41-41.04 33.67.53-.79.87-1.87 1.03-3.26-.14 1.21-.46 2.39-.96 3.49s-.02.04-.02.03v-.02c1.82-4.31.26-7.57-4.66-9.79-.46-.2-.84-.33-1.13-.37.13.02.35.03.65.02 4-.03 7.73 1.97 9.91 5.32s2.51 7.58.86 11.22v.02c3.2-7.06 1.27-12.18-5.79-15.36-1.76-.79-3.4-1.11-4.92-.96 2.74-.28 12.7-2.72 29.86-7.33l.5-.12c8.33-1.84 13.56 1.05 15.71 8.68a11.72 11.72 0 0 1-3.11 11.57l-.16.15-.03.03.16-.15c-13.23 12.88-26.3 26.79-39.2 41.72l1.83-2.87c3.08-6.87 1.12-11.86-5.87-14.99-2.9-1.3-5.55-1.44-7.94-.42h-.01c.1-.04.26-.11.48-.23l.11-.05c-.24.12-.43.22-.59.32h.02c1.09-.68 5.04-3.45 11.84-8.32l.13-.09c.26-.18.52-.35.76-.51 7.06-4.55 12.79-3.64 17.19 2.73l-.03-.04c2.45 3.52 2.86 7.33 1.22 11.42l.39-1.13c-.32 1.12-.78 2.27-1.37 3.43-.82 1.62-1.96 3.38-3.43 5.3l-.02.03-16.21 21.06.09-.12s-.06.08-.08.1c1.63-2.42 1.69-5.33.18-8.74l-11.12-6.96c-.94.03-1.7.17-2.27.4 8.49-3.52 41.24-32.5 98.24-86.97l-.92.98c.27-.33.46-.57.55-.72-2.77 4.33-1.81 8.45 2.89 12.35 2.13 1.77 4.23 2.54 6.29 2.3-.56.06-1.56.33-3.03.8l1.06-.4c-14.01 6.06-24.74 11.86-32.18 17.39-5.19 3.86-12.53 2.78-16.39-2.41-3.86-5.19-2.78-12.53 2.41-16.39 8.9-6.62 21.19-13.32 36.86-20.1l1.06-.4c2.91-.94 5.4-1.53 7.46-1.77 4.59-.54 8.4.44 11.41 2.95 5.91 4.91 6.53 11 1.88 18.28-.62.97-1.38 2-2.28 3.08l-.92.98c-59.12 56.48-94.28 87.04-105.47 91.67-2.04.84-4 1.3-5.88 1.37-4.78.17-9.18-2.59-11.12-6.96-1.99-4.48-1.39-9.09 1.8-13.83.24-.35.49-.71.77-1.08l.09-.12 16.21-21.06-.02.03c.6-.79.99-1.35 1.16-1.69-.09.18-.18.43-.27.75l.39-1.13c-1.49 3.73-1.06 7.29 1.31 10.68l-.03-.04c4.2 6.08 9.13 7.29 14.79 3.64s-.04.03-.07.05l.13-.09c-7.26 5.2-11.68 8.28-13.26 9.25h.02c-.45.27-.87.5-1.27.7l.11-.05c-.7.35-1.34.66-1.93.91h-.01c-3.87 1.65-7.46 1.73-10.77.24-7.27-3.26-9.25-8.58-5.94-15.97.47-1.05 1.08-2.01 1.83-2.87 13.35-15.45 26.88-29.85 40.58-43.19l.16-.15.03-.03-3.26 11.72c1.85 6.57 5.82 9.19 11.91 7.84l.5-.12c-18.38 4.93-29.56 7.59-33.54 8-2.67.27-5.04-.06-7.11-.99-7.22-3.25-9.19-8.48-5.93-15.68l10.77 16.55c-1.44.01-2.79-.07-4.04-.24-1.95-.27-3.72-.76-5.32-1.48-8.96-4.03-11.4-10.91-7.32-20.64v-.02c.09-.2.17-.38.25-.55l-.96 3.49c.27-2.38 1.19-4.75 2.77-7.12 4.35-6.51 19.87-19.67 46.55-39.47l-.94.78c.87-.8 1.43-1.4 1.68-1.79-.64 1.02-.83 2.39-.55 4.13l.15.78c.62 2.76 1.93 4.48 3.93 5.16-.09-.03-.25-.07-.46-.11-.73-.14-1.45-.35-2.14-.63.33.13.61.23.84.29h-.02c-2.54-.67-13.69-2.36-33.46-5.06l-.57-.09c-3.17-.6-5.69-1.24-7.55-1.94-4.45-1.66-7.34-4.41-8.68-8.23l1.48 2.88c-1.46-2.08-2.27-4.33-2.41-6.76v-.02c-.46-8.01 3.76-12.53 12.66-13.55.48-.05.98-.1 1.5-.13l-.41.03 33.66-3.1-3.32.8c.12-.05.2-.08.25-.11-2.27 1.1-3.8 3.2-4.6 6.31-1.76 6.9.34 11.17 6.31 12.83h-.01.02l1.01.21c-24-3.89-43.24-4.2-57.72-.92l.09-22.83c20.2 4.74 33.59 9.05 40.18 12.92 5.58 3.28 7.44 10.46 4.16 16.04-3.28 5.58-10.46 7.44-16.04 4.16Z" style="fill: rgb(255, 199, 9);"></path><path d="M140.46 51.46c.21 4.18.31 11.67.31 22.48l-.09.02c-1.14 2.24-2.32 4.75-3.55 7.51v.02c-1.08-1.32-2.5-2.42-4.24-3.32v.02c-2.36-1.22-4.54-1.83-6.56-1.83-.23 0-.46 0-.69.02l-.07.02c.51-.89 1.02-1.77 1.54-2.63v.02l.15-.27c5.18-8.92 9.56-16.27 13.12-22.05h.09ZM139.71 0c-3.27 0-6.52 1.36-8.84 4.02-.37.43-.75.91-1.13 1.44-5.04 7.06-20.89 42.69-47.54 106.91l.08.03-.09.02-.01.01c-2.44 5.98.42 12.8 6.39 15.26 1.46.6 2.97.89 4.46.89 3.8 0 7.44-1.86 9.64-5.05l.09.02c1 2.93 3.17 5.48 6.23 6.87.93.42 1.88.72 2.84.89l-.09.02c.1.75.25 1.47.45 2.13l-.02.02c1.18 4.62 4.03 7.53 8.53 8.73v.02c1.55.4 2.99.6 4.31.6.72 0 1.4-.06 2.06-.18l.09.02c1.03.37 2.08.55 3.14.55 2.89 0 5.89-1.39 9.01-4.17v.02c1.54-1.39 2.69-3.14 3.33-5.1.93-2.82 1.83-5.54 2.71-8.15l.09.02c1.7 1.1 3.84 1.64 6.41 1.64.57 0 1.16-.03 1.77-.08v.02c4.81-.44 8.31-3.15 10.5-8.15.82-1.86 1.79-4.86 2.93-9l.11-.43c2.32-9.92 4.22-21.2 5.71-33.85l.08-1.37.08.01c.04-.42.06-.84.08-1.23v.02c.34-8.28-2.66-13.51-9-15.71l-.09.02c-.13-6.55-.35-10.84-.65-12.86l-.06.02c-.63-9-2.23-15.78-4.8-20.35-2.09-3.7-4.79-6.31-8.1-7.8l-.09.02c2.16-4.63 1.12-10.3-2.92-13.82a11.685 11.685 0 0 0-7.69-2.88Z" style="fill: rgb(255, 199, 9);"></path><path d="M147.46 53.49c3.28 10.55 5.85 19.5 7.74 26.86l-.11-.41c.82 2.79 3.27 13.62 7.34 32.49 1.36 6.32-2.66 12.56-8.98 13.92-6.32 1.36-12.56-2.66-13.92-8.98-3.94-18.29-6.24-28.55-6.9-30.79l-.11-.41c-1.78-6.96-4.25-15.53-7.42-25.72-1.92-6.18 1.54-12.74 7.71-14.66s12.74 1.54 14.66 7.71Z" style="fill: rgb(255, 199, 9);"></path><path d="M169.24 76.15c4.41 10.55 11 23.97 19.75 40.27 3.06 5.7.92 12.8-4.78 15.86-5.7 3.06-12.8.92-15.86-4.78-9.11-16.96-16.02-31.06-20.72-42.31-2.5-5.97.32-12.83 6.29-15.33s12.83.32 15.33 6.29Z" style="fill: rgb(255, 199, 9);"></path><path d="M175.69 103.38c-3.37 0-6.49.06-9.36.17-6.46.26-11.49 5.71-11.24 12.18.25 6.3 5.44 11.25 11.7 11.25h.48c2.42-.1 5.04-.15 7.87-.16l.09.02c-.6 1.46-.9 3.09-.83 4.78.23 6.26 5.34 11.22 11.6 11.28 3.78.03 7.4.07 10.86.1l-.09.02c-2.29 2.97-2.76 6.48-1.41 10.52v.02c.71 2.14 1.67 3.87 2.88 5.18l-.09.02c-1 .88-2.04 1.79-3.11 2.74l-.69.66c-.25.26-.49.52-.71.77h-.01c-1 1.14-1.82 2.25-2.45 3.36l-.09.02c-2.57 1.75-5.27 3.6-8.08 5.55-5.32 3.68-6.65 10.98-2.97 16.3 2.27 3.29 5.93 5.05 9.64 5.05 2.3 0 4.62-.68 6.65-2.08 5.76-3.99 10.95-7.54 15.57-10.67l-.09.02c6.53-3.35 16.68-9.3 30.48-17.83 2.87-1.77 4.84-4.7 5.39-8.03.34-2.04.38-3.86.1-5.46l-.09.02c5.83-1.91 9.75-3.21 11.76-3.91l-.04.02c5.88-1.79 9.11-4.98 9.69-9.59l-.09.02c3.64-.93 6.35-2.78 8.12-5.55v-.02c3.22-5.01 3.33-9.38.34-13.08l-.09.02c-1.53-2.68-4.29-4.63-8.29-5.86-4.95-1.52-18.91-3.21-41.9-5.07v.02c-21-1.82-38.17-2.73-51.49-2.73ZM111.58 137.3c.97.34 1.82.51 2.55.52-5.17-.08-30.27 3.98-75.3 12.18l-.5.08c-3.96.55-6.43.95-7.41 1.22 5.83-1.61 8.3-5.73 7.4-12.33v-.05c-.81-5.73-3.78-8.94-8.92-9.62 1.3.17 4.81.23 10.54.17 6.44-.06 11.73 5.08 11.83 11.52.1 6.44-5.01 11.76-11.45 11.9-7.06.16-14.95 1.36-23.68 3.62l2.19-.8c6.56-3.18 8.29-7.98 5.19-14.38-.28-.57-.54-1.01-.8-1.31.81.93 2.92 2.66 6.34 5.18l-.21-.15 69.85 49.12c1.01.71 1.91 1.58 2.65 2.58 4.8 6.45 4.05 12.04-2.24 16.77-3.51 2.64-7.59 3.11-12.24 1.42-1.1-.4-2.51-1.01-4.24-1.85l.1.05-58.82-27.7c-1.44-.68-2.73-1.64-3.78-2.84l.49.52-.49-.52c-5.54-6.26-5.32-12.03.66-17.32 3.55-3.13 7.84-3.83 12.88-2.09 1.72.59 4.23 1.72 7.55 3.38l.36.19 29.37 16.06-11.33.05c-5.74 3.21-7.32 7.3-4.73 12.27s-.02-.03-.02-.04c-.04-.08-.05-.1-.04-.07l.08.14c-1.58-2.72-4.28-6.49-8.08-11.32-4-5.08-3.13-12.45 1.96-16.45 5.08-4 12.45-3.13 16.45 1.96 4.48 5.69 7.79 10.36 9.92 14.02l.08.14c.06.11.1.17.1.18.12.22.23.42.34.63 4.42 8.49 2.88 14.83-4.62 19.01a11.73 11.73 0 0 1-11.33.05l-29.37-16.06.36.19c-2.38-1.19-3.93-1.92-4.66-2.17 3.55 1.22 6.96.39 10.23-2.49 5.74-5.07 6.2-10.33 1.38-15.78l-.49-.52-3.29-2.31 58.82 27.7.1.05c1.01.49 1.7.8 2.05.93-3.31-1.2-6.6-.58-9.86 1.87-6.13 4.61-6.95 9.93-2.46 15.96l2.65 2.58-69.81-49.11-.21-.15c-4.84-3.57-8.24-6.49-10.2-8.76-1.07-1.24-1.91-2.5-2.53-3.76-3.7-7.65-1.81-13.29 5.67-16.92.7-.34 1.44-.61 2.19-.8 10.47-2.7 20.14-4.15 29-4.35l.38 23.43c-6.84.07-11.46-.06-13.86-.37-6.63-.87-10.37-4.33-11.22-10.36v-.05c-.95-6.91 2.24-11.38 9.56-13.41 1.98-.55 5.46-1.16 10.46-1.85l-.5.08c46.53-8.47 73.15-12.66 79.86-12.55 1.78.03 3.37.29 4.77.77 6.11 2.12 9.34 8.79 7.22 14.91-2.12 6.11-8.8 9.35-14.91 7.23Z" style="fill: rgb(255, 199, 9);"></path><path d="M91.05 203.47c-.78 4.43-2.29 10.69-4.52 18.78l-.13.44c-13.47 42.35-21.45 68.81-23.93 79.38-1.48 6.3-7.78 10.21-14.08 8.73-6.3-1.48-10.21-7.78-8.73-14.08 2.62-11.16 10.75-38.2 24.41-81.13l-.13.44c2.03-7.38 3.38-12.93 4.03-16.63 1.13-6.37 7.2-10.62 13.58-9.5 6.37 1.13 10.62 7.2 9.5 13.58Z" style="fill: rgb(255, 199, 9);"></path><path d="M91.55 211.76c-2.84 6.58-6.06 16-9.67 28.25v.04c-12.16 40.7-18.68 62.79-19.57 66.28l-.23.79v.03l.08-.3c-1.78 5.85-2.77 9.46-2.98 10.82.89-5.9-1.81-9.81-8.12-11.73l.08.02c-2.98-.93-5.85-.7-8.62.69 2.65-1.33 5.71-1.6 8.56-.76l-3.32 11.23 3.31-11.24c-3.49-1.03-6.29-.61-8.42 1.24.2-.18.51-.51.93-1.01l.27-.31c6.2-6.79 23.52-27.57 51.97-62.34.84-1.02 1.84-1.9 2.97-2.59l6.1 10-6.08-10.01c6.79-4.12 12.23-2.83 16.32 3.88l-.02-.03c2.3 3.75 2.38 7.83.24 12.24-1.01 2.08-3.47 6.09-7.37 12.04l.05-.08c-3.66 5.68-10.5 15.21-20.53 28.59l-.26.34c2.68-3.31 3.04-7.01 1.08-11.1l-17.38-4.46 36.66-26.24 6.82 21.24.92-.04c1.13-.09 2.05-.3 2.76-.64-.5.24-1.41.81-2.75 1.72l.06-.04-23.19 16.01.12-.08c-4.39 3.11-8.88 3.71-13.47 1.8a11.715 11.715 0 0 1-6.91-8.17c-.85-3.68.12-7.54 2.61-10.37 7.03-8.01 17.44-16.46 31.23-25.34 5.44-3.5 12.69-1.94 16.19 3.5 3.5 5.44 1.94 12.69-3.5 16.19-11.95 7.7-20.73 14.74-26.32 21.11l-4.3-18.54c-3.39-1.41-6.42-1.18-9.08.71l.12-.08 23.19-16.01.06-.04c2.31-1.57 4.23-2.73 5.78-3.47 1.93-.93 3.78-1.46 5.56-1.6l.92-.04c4.34-.37 9.21 2.77 11.01 7.71 1.8 4.94.08 10.47-4.19 13.53l-36.66 26.24a11.738 11.738 0 0 1-9.73 1.82c-3.35-.86-6.15-3.16-7.65-6.28-2.3-4.81-1.7-9.39 1.83-13.75l-.26.34c9.7-12.94 16.22-22.02 19.59-27.24l.05-.08c3.36-5.12 5.32-8.27 5.89-9.45-1.6 3.3-1.31 6.72.87 10.27l-.02-.03c4.03 6.6 9.31 7.92 15.84 3.95l-6.08-10.01 9.07 7.42c-28.72 35.1-46.32 56.2-52.8 63.3l.27-.31c-1.18 1.39-2.32 2.56-3.4 3.5-4.33 3.77-8.87 4.96-13.6 3.57l3.31-11.24L53 327.6c-2.86 1.43-5.81 1.67-8.84.72l.08.02c-6.61-2.01-9.35-6.75-8.22-14.19.38-2.48 1.62-7.19 3.73-14.13l.09-.3v-.03l-.22.79c.97-3.76 7.57-26.14 19.8-67.14v.04c3.86-13.16 7.41-23.46 10.62-30.91 2.56-5.94 9.45-8.68 15.4-6.12 5.94 2.56 8.68 9.45 6.12 15.4Z" style="fill: rgb(255, 199, 9);"></path><path d="M60.39 285.24c24.87-19.15 52.22-38.39 82.06-57.7 5.43-3.52 12.68-1.96 16.2 3.47 3.52 5.43 1.96 12.68-3.47 16.2-29.3 18.96-56.13 37.82-80.49 56.59-5.13 3.95-12.48 2.99-16.43-2.13-3.95-5.13-2.99-12.48 2.13-16.43Z" style="fill: rgb(255, 199, 9);"></path><path d="M133.33 235c10.81 5.69 20.44 11.79 28.91 18.3l-.16-.12c9.68 7.18 30.35 23.67 62.01 49.44 5.02 4.09 5.77 11.46 1.69 16.48-4.09 5.02-11.46 5.77-16.48 1.69-31.38-25.56-51.77-41.82-61.17-48.79l-.16-.12c-7.41-5.69-15.92-11.08-25.55-16.15-5.72-3.02-7.92-10.1-4.91-15.83s10.1-7.92 15.83-4.9Z" style="fill: rgb(255, 199, 9);"></path><path d="M143.15 235.26c18.63 13.64 41.24 32.6 67.84 56.88 4.78 4.36 5.12 11.77.75 16.55-4.36 4.78-11.77 5.12-16.55.75-25.98-23.72-47.94-42.14-65.88-55.28-5.22-3.82-6.35-11.15-2.53-16.37 3.82-5.22 11.15-6.35 16.37-2.53Z" style="fill: rgb(255, 199, 9);"></path><path d="m155.85 230.01-1.35-1.61 1.35 1.62c1.1 1.58 3.66 4.35 7.69 8.32l-.18-.17c11.78 11.1 31.35 30.06 58.71 56.88 4.62 4.53 4.7 11.95.17 16.57-4.53 4.62-11.95 4.7-16.57.17-27.26-26.72-46.72-45.58-58.38-56.56l-.18-.17c-5.08-4.99-8.59-8.89-10.53-11.69l1.35 1.61c-5.03-6.93-3.71-14.23 1.61-17.92 5.32-3.68 12.62-2.36 16.3 2.96Z" style="fill: rgb(255, 199, 9);"></path><path d="M227.44 314.43c-1.21-3.39-2.87-9.05-4.98-16.99v.04c-18.48-68.52-28.16-104.88-29.03-109.09-.11-.56-.19-1.06-.24-1.52-.64-6.44 4.05-12.18 10.49-12.82s12.18 4.05 12.82 10.49c-.03-.34-.08-.63-.12-.87.78 3.75 10.35 39.66 28.72 107.71v.04c1.96 7.32 3.43 12.37 4.42 15.15 2.17 6.09-1.01 12.8-7.1 14.97s-12.8-1.01-14.97-7.1Z" style="fill: rgb(255, 199, 9);"></path><path d="M215.12 171.7c.33 2.75.98 6.12 1.96 10.12l.05.23c.9 4.07 3.89 15.97 8.98 35.72v-.03c.53 2.06 3.58 15.05 9.13 38.97 1.46 6.3-2.46 12.6-8.76 14.06-6.3 1.46-12.6-2.46-14.06-8.76-5.51-23.72-8.5-36.51-8.99-38.38v-.03c-5.16-20-8.22-32.18-9.17-36.51l.05.23c-1.18-4.88-2-9.15-2.44-12.81-.78-6.42 3.79-12.26 10.22-13.04 6.42-.78 12.26 3.79 13.04 10.22Z" style="fill: rgb(255, 199, 9);"></path><path d="M203.41 188.08c0 2.95.84 8.13 2.53 15.55l-.03-.12c2.75 11.52 7.09 28.56 13.02 51.11 1.64 6.26-2.1 12.66-8.35 14.31-6.26 1.64-12.66-2.1-14.31-8.35-5.97-22.7-10.35-39.91-13.15-51.63l-.03-.12c-2.08-9.14-3.12-16.06-3.12-20.77 0-6.47 5.25-11.71 11.72-11.71 6.47 0 11.71 5.25 11.71 11.72Z" style="fill: rgb(255, 199, 9);"></path><path d="m193.54 195.04.02.73-.02-.73c.13 2.07.98 5.87 2.54 11.37l-.08-.25c7.77 25.18 13.67 44.8 17.69 58.86 1.78 6.22-1.82 12.71-8.04 14.49-6.22 1.78-12.71-1.82-14.49-8.04-3.98-13.89-9.83-33.35-17.56-58.4l-.08-.25c-2.02-7.12-3.15-12.55-3.39-16.31l-.02-.73c-.38-5.73 4.53-11.29 10.98-11.69 6.46-.4 12.02 4.5 12.42 10.96ZM145 106.3c-1.18 0-2.42.13-3.71.39-1.31.27-2.79.69-4.44 1.27v.02c-4.66 1.59-9.24 3.23-13.77 4.93l-.09.02c-2.43.13-4.82 1.03-6.79 2.66l-.09.02c-2.11.82-4.21 1.66-6.3 2.51l-.04.02c-18.74 7.75-30.05 12.95-33.95 15.59-2.34 1.58-4.02 3.45-5.04 5.59v.02a11.583 11.583 0 0 0-1.06 6.37v.1c.88 7.25 4.66 10.88 11.36 10.88.83 0 1.71-.06 2.64-.17l.65-.12.09.02a11.69 11.69 0 0 0 3.88 7.58l-.09.02c-2.49 2.73-4.25 4.87-5.29 6.44v.02c-1.49 2.22-2.33 4.45-2.54 6.69l-.09.02c-1.57 8.4 2.14 13.79 11.12 16.17.89.24 1.83.41 2.82.53h.02c.14.02.29.03.43.05l-.09.02c.54.09 1.1.17 1.69.22v.02c.94.07 2.35.11 4.26.11 3.5 0 8.64-.14 15.43-.41l.09.02-8.29 17.29c-2.55 5.32-.74 11.71 4.21 14.9 1.96 1.26 4.16 1.87 6.35 1.87 3.36 0 6.67-1.44 8.97-4.17l4.23-5.03-.09.02a12.12 12.12 0 0 0 2.94-2.35l33.51-36.77c4.32-4.74 4.03-12.06-.65-16.44a11.674 11.674 0 0 0-8.01-3.17c-3.07 0-6.14 1.2-8.44 3.59-.42.43-1.11 1.12-2.09 2.07l-.09.02c-2.06.43-4.14 1.55-6.24 3.35-.74.64-1.83 1.67-3.25 3.09l-.5.52c-.1.11-.2.23-.3.34v.02c-2.62-2.01-5.89-3.06-9.82-3.15h-.83c-5.09.26-9.52.47-13.32.62v.02l35.3-36.87.05-.05c2.41-2.54 4.21-4.78 5.4-6.73 2.4-3.91 3.12-7.76 2.15-11.53-.63-2.45-2.04-4.62-4-6.2-2.35-1.89-5.1-2.83-8.26-2.83Z" style="fill: rgb(255, 199, 9);"></path><path d="M186.93 155.54c.56.59 1.18 1.12 1.84 1.58l-.09.02c-.66-.43-1.27-.96-1.84-1.59h.09Zm-42.92 2.58-.69.11v.02s.04-.08.06-.11l-.09.02c.21-.02.42-.03.63-.04h.09Zm-31.26 62.24c.08.19.15.39.21.58l-.14.02c-.05-.21-.11-.4-.17-.6h.09Zm.37 2.15Zm57.76-96.94c-5.89 0-21.45 1.91-46.67 5.74l-.09.02c-15.94.73-29.93 2.08-41.96 4.06-2.67.44-4.99 1.76-6.71 3.62l-.09.02c-6.63.97-11.14 1.77-13.55 2.39a11.716 11.716 0 0 0 4.86 22.9c6.38-1.07 12.47-2.08 18.27-3.03l-.09.02c5.61-.78 12.49-1.67 20.63-2.67l-.09.02 2.41-.02.09.02a841.83 841.83 0 0 1-8.18 5.85c-.75.53-1.44 1.15-2.04 1.84-5.71 6.52-5.4 12.56.94 18.11v.02c1.29 1.12 2.79 1.98 4.51 2.6 1.28.46 2.62.69 3.97.69.63 0 1.26-.05 1.89-.15l15.03-2.46.09.02c-.15.24-.29.51-.41.78-1.72 3.63-2.1 6.78-1.13 9.44l-.09.02c-15.76 9.81-25.12 16.03-28.07 18.68v.02c-4.93 4.41-6.21 9.16-3.83 14.26l-.09.02c.84 2.81 2.37 4.93 4.58 6.34l-.09.02-1.58.82a11.713 11.713 0 0 0-5.73 13.79 11.713 11.713 0 0 0 12.46 8.22l37.85-4.1.02.02c8.25-.77 14.16-1.29 17.71-1.57l-.09.02c1.22-.02 2.48-.03 3.79-.06.71-.01 1.43-.09 2.13-.23 3.96-.8 6.74-2.45 8.32-4.95l.09.02c1.16.97 2.38 2.07 3.66 3.31.45.43.93.83 1.43 1.18l-.09.02c2.92 2.87 11.73 13.21 26.41 31.01 2.31 2.8 5.66 4.26 9.04 4.26 2.36 0 4.74-.71 6.8-2.18 5.01-3.58 6.4-10.42 3.17-15.66-4.62-7.52-23.11-31.41-55.48-71.67l-.09.02c2.69-1.63 5.47-3.32 8.36-5.05 1.02-.61 1.94-1.38 2.73-2.27 2.93-3.31 3.92-7 2.97-11.07v-.03c-.38-1.6-.9-2.99-1.55-4.17l-.09.02c2.85-4.26 3.11-8.27.78-12.02l-.09.02c-.76-2.09-1.95-3.72-3.56-4.92l-.09.02c.5-.01.98-.02 1.46-.02 7.29 0 12.21.19 14.75.58l-.09.02c1.58.75 3.33 1.15 5.11 1.15s3.58-.41 5.28-1.26c5.77-2.92 8.08-9.97 5.16-15.75-1.81-3.58-5-5.87-9.57-6.88-1.76-.39-4.57-.68-8.42-.87l-.09.02c-1.43-5.09-5.12-7.96-11.09-8.62-1.16-.13-2.71-.2-4.66-.23l-.09.02s-.09-.02-.13-.02l-.02.02c-.28-.02-.59-.04-.94-.04Z" style="fill: rgb(255, 199, 9);"></path><path d="M88.09 161.21c-4.55-2.68-15.77-6.11-33.66-10.31-5.31-1.25-9.06-5.99-9.04-11.45s3.81-10.18 9.13-11.38c17.43-3.95 39.64-3.73 66.64.65l1.01.21c.18.05.34.09.49.13h-.01c8.79 2.43 12.16 7.62 10.13 15.57-1.01 3.93-3.65 6.92-7.92 8.98-.51.25-1.05.49-1.63.72-1.06.43-2.18.7-3.32.8l-33.67 3.1-.41.03c-.07 0-.12 0-.16.01 5.75-.66 8.43-4.35 8.04-11.07v-.02c-.12-2.01-.73-3.79-1.83-5.35.62.88 1.12 1.85 1.48 2.87-1.08-3.07-2.82-5.06-5.22-5.96.59.22 1.81.51 3.65.85l-.57-.09c20.71 2.84 32.79 4.71 36.24 5.61h-.02c.74.19 1.4.4 1.99.64l-2.14-.63c1.27.25 2.45.56 3.56.93 6.28 2.13 10.07 6.09 11.38 11.85l.15.78c.63 4.06-.3 8.07-2.8 12.01-1.36 2.15-3.24 4.32-5.63 6.52l-.94.78c-24.51 18.19-38.19 29.41-41.04 33.67.53-.79.87-1.87 1.03-3.26-.14 1.21-.46 2.39-.96 3.49s-.02.04-.02.03v-.02c1.82-4.31.26-7.57-4.66-9.79-.46-.2-.84-.33-1.13-.37.13.02.35.03.65.02 4-.03 7.73 1.97 9.91 5.32s2.51 7.58.86 11.22v.02c3.2-7.06 1.27-12.18-5.79-15.36-1.76-.79-3.4-1.11-4.92-.96 2.74-.28 12.7-2.72 29.86-7.33l.5-.12c8.33-1.84 13.56 1.05 15.71 8.68a11.72 11.72 0 0 1-3.11 11.57l-.16.15-.03.03.16-.15c-13.23 12.88-26.3 26.79-39.2 41.72l1.83-2.87c3.08-6.87 1.12-11.86-5.87-14.99-2.9-1.3-5.55-1.44-7.94-.42h-.01c.1-.04.26-.11.48-.23l.11-.05c-.24.12-.43.22-.59.32h.02c1.09-.68 5.04-3.45 11.84-8.32l.13-.09c.26-.18.52-.35.76-.51 7.06-4.55 12.79-3.64 17.19 2.73l-.03-.04c2.45 3.52 2.86 7.33 1.22 11.42l.39-1.13c-.32 1.12-.78 2.27-1.37 3.43-.82 1.62-1.96 3.38-3.43 5.3l-.02.03-16.21 21.06.09-.12s-.06.08-.08.1c1.63-2.42 1.69-5.33.18-8.74l-11.12-6.96c-.94.03-1.7.17-2.27.4 8.49-3.52 41.24-32.5 98.24-86.97l-.92.98c.27-.33.46-.57.55-.72-2.77 4.33-1.81 8.45 2.89 12.35 2.13 1.77 4.23 2.54 6.29 2.3-.56.06-1.56.33-3.03.8l1.06-.4c-14.01 6.06-24.74 11.86-32.18 17.39-5.19 3.86-12.53 2.78-16.39-2.41-3.86-5.19-2.78-12.53 2.41-16.39 8.9-6.62 21.19-13.32 36.86-20.1l1.06-.4c2.91-.94 5.4-1.53 7.46-1.77 4.59-.54 8.4.44 11.41 2.95 5.91 4.91 6.53 11 1.88 18.28-.62.97-1.38 2-2.28 3.08l-.92.98c-59.12 56.48-94.28 87.04-105.47 91.67-2.04.84-4 1.3-5.88 1.37-4.78.17-9.18-2.59-11.12-6.96-1.99-4.48-1.39-9.09 1.8-13.83.24-.35.49-.71.77-1.08l.09-.12 16.21-21.06-.02.03c.6-.79.99-1.35 1.16-1.69-.09.18-.18.43-.27.75l.39-1.13c-1.49 3.73-1.06 7.29 1.31 10.68l-.03-.04c4.2 6.08 9.13 7.29 14.79 3.64s-.04.03-.07.05l.13-.09c-7.26 5.2-11.68 8.28-13.26 9.25h.02c-.45.27-.87.5-1.27.7l.11-.05c-.7.35-1.34.66-1.93.91h-.01c-3.87 1.65-7.46 1.73-10.77.24-7.27-3.26-9.25-8.58-5.94-15.97.47-1.05 1.08-2.01 1.83-2.87 13.35-15.45 26.88-29.85 40.58-43.19l.16-.15.03-.03-3.26 11.72c1.85 6.57 5.82 9.19 11.91 7.84l.5-.12c-18.38 4.93-29.56 7.59-33.54 8-2.67.27-5.04-.06-7.11-.99-7.22-3.25-9.19-8.48-5.93-15.68l10.77 16.55c-1.44.01-2.79-.07-4.04-.24-1.95-.27-3.72-.76-5.32-1.48-8.96-4.03-11.4-10.91-7.32-20.64v-.02c.09-.2.17-.38.25-.55l-.96 3.49c.27-2.38 1.19-4.75 2.77-7.12 4.35-6.51 19.87-19.67 46.55-39.47l-.94.78c.87-.8 1.43-1.4 1.68-1.79-.64 1.02-.83 2.39-.55 4.13l.15.78c.62 2.76 1.93 4.48 3.93 5.16-.09-.03-.25-.07-.46-.11-.73-.14-1.45-.35-2.14-.63.33.13.61.23.84.29h-.02c-2.54-.67-13.69-2.36-33.46-5.06l-.57-.09c-3.17-.6-5.69-1.24-7.55-1.94-4.45-1.66-7.34-4.41-8.68-8.23l1.48 2.88c-1.46-2.08-2.27-4.33-2.41-6.76v-.02c-.46-8.01 3.76-12.53 12.66-13.55.48-.05.98-.1 1.5-.13l-.41.03 33.67-3.1-3.32.8c.12-.05.2-.08.25-.11-2.27 1.1-3.8 3.2-4.6 6.31-1.76 6.9.34 11.17 6.31 12.83h-.01.02l1.01.21c-24-3.89-43.24-4.2-57.72-.92l.09-22.83c20.2 4.74 33.59 9.05 40.18 12.92 5.58 3.28 7.44 10.46 4.16 16.04-3.28 5.58-10.46 7.44-16.04 4.16Z" style="fill: rgb(255, 199, 9);"></path><path d="M141.57 51.46c.21 4.18.31 11.67.31 22.48l-.09.02c-1.14 2.24-2.32 4.75-3.55 7.51v.02c-1.08-1.32-2.5-2.42-4.24-3.32v.02c-2.36-1.22-4.54-1.83-6.56-1.83-.23 0-.46 0-.69.02l-.07.02c.51-.89 1.02-1.77 1.54-2.63v.02l.15-.27c5.18-8.92 9.56-16.27 13.12-22.05h.09ZM140.82 0c-3.27 0-6.52 1.36-8.84 4.02-.37.43-.75.91-1.13 1.44-5.04 7.06-20.89 42.69-47.54 106.91l.08.03-.09.02-.01.01c-2.44 5.98.42 12.8 6.39 15.26 1.46.6 2.97.89 4.46.89 3.8 0 7.44-1.86 9.64-5.05l.09.02c1 2.93 3.17 5.48 6.23 6.87.93.42 1.88.72 2.84.89l-.09.02c.1.75.25 1.47.45 2.13l-.02.02c1.18 4.62 4.03 7.53 8.53 8.73v.02c1.55.4 2.99.6 4.31.6.72 0 1.4-.06 2.06-.18l.09.02c1.03.37 2.08.55 3.14.55 2.89 0 5.89-1.39 9.01-4.17v.02c1.54-1.39 2.69-3.14 3.33-5.1.93-2.82 1.83-5.54 2.71-8.15l.09.02c1.7 1.1 3.84 1.64 6.41 1.64.57 0 1.16-.03 1.77-.08v.02c4.81-.44 8.31-3.15 10.5-8.15.82-1.86 1.79-4.86 2.93-9l.11-.43c2.32-9.92 4.22-21.2 5.71-33.85l.08-1.37.08.01c.04-.42.06-.84.08-1.23v.02c.34-8.28-2.66-13.51-9-15.71l-.09.02c-.13-6.55-.35-10.84-.65-12.86l-.06.02c-.63-9-2.23-15.78-4.8-20.35-2.09-3.7-4.79-6.31-8.1-7.8l-.09.02c2.16-4.63 1.12-10.3-2.92-13.82a11.685 11.685 0 0 0-7.69-2.88Z" style="fill: rgb(255, 199, 9);"></path><path d="M148.56 53.49c3.28 10.55 5.85 19.5 7.74 26.86l-.11-.41c.82 2.79 3.27 13.62 7.34 32.49 1.36 6.32-2.66 12.56-8.98 13.92-6.32 1.36-12.56-2.66-13.92-8.98-3.94-18.29-6.24-28.55-6.9-30.79l-.11-.41c-1.78-6.96-4.25-15.53-7.42-25.72-1.92-6.18 1.54-12.74 7.71-14.66s12.74 1.54 14.66 7.71Z" style="fill: rgb(255, 199, 9);"></path><path d="M170.35 76.15c4.41 10.55 11 23.97 19.75 40.27 3.06 5.7.92 12.8-4.78 15.86-5.7 3.06-12.8.92-15.86-4.78-9.11-16.96-16.02-31.06-20.72-42.31-2.5-5.97.32-12.83 6.29-15.33s12.83.32 15.33 6.29Z" style="fill: rgb(255, 199, 9);"></path><path d="M176.79 103.38c-3.37 0-6.49.06-9.36.17-6.46.26-11.49 5.71-11.24 12.18.25 6.3 5.44 11.25 11.7 11.25h.48c2.42-.1 5.04-.15 7.87-.16l.09.02c-.6 1.46-.9 3.09-.83 4.78.23 6.26 5.34 11.22 11.6 11.28 3.78.03 7.4.07 10.86.1l-.09.02c-2.29 2.97-2.76 6.48-1.41 10.52v.02c.71 2.14 1.67 3.87 2.88 5.18l-.09.02c-1 .88-2.04 1.79-3.11 2.74l-.69.66c-.25.26-.49.52-.71.77h-.01c-1 1.14-1.82 2.25-2.45 3.36l-.09.02c-2.57 1.75-5.27 3.6-8.08 5.55-5.32 3.68-6.65 10.98-2.97 16.3 2.27 3.29 5.93 5.05 9.64 5.05 2.3 0 4.62-.68 6.65-2.08 5.76-3.99 10.95-7.54 15.57-10.67l-.09.02c6.53-3.35 16.68-9.3 30.48-17.83 2.87-1.77 4.84-4.7 5.39-8.03.34-2.04.38-3.86.1-5.46l-.09.02c5.83-1.91 9.75-3.21 11.76-3.91l-.04.02c5.88-1.79 9.11-4.98 9.69-9.59l-.09.02c3.64-.93 6.35-2.78 8.12-5.55v-.02c3.22-5.01 3.33-9.38.34-13.08l-.09.02c-1.53-2.68-4.29-4.63-8.29-5.86-4.95-1.52-18.91-3.21-41.9-5.07v.02c-21-1.82-38.17-2.73-51.49-2.73ZM112.69 137.3c.97.34 1.82.51 2.55.52-5.17-.08-30.27 3.98-75.3 12.18l-.5.08c-3.96.55-6.43.95-7.41 1.22 5.83-1.61 8.3-5.73 7.4-12.33v-.05c-.81-5.73-3.78-8.94-8.92-9.62 1.3.17 4.81.23 10.54.17 6.44-.06 11.73 5.08 11.83 11.52.1 6.44-5.01 11.76-11.45 11.9-7.06.16-14.95 1.36-23.68 3.62l2.19-.8c6.56-3.18 8.29-7.98 5.19-14.38-.28-.57-.54-1.01-.8-1.31.81.93 2.92 2.66 6.34 5.18l-.21-.15 69.85 49.12c1.01.71 1.91 1.58 2.65 2.58 4.8 6.45 4.05 12.04-2.24 16.77-3.51 2.64-7.59 3.11-12.24 1.42-1.1-.4-2.51-1.01-4.24-1.85l.1.05-58.82-27.7c-1.44-.68-2.73-1.64-3.78-2.84l.49.52-.49-.52c-5.54-6.26-5.32-12.03.66-17.32 3.55-3.13 7.84-3.83 12.88-2.09 1.72.59 4.23 1.72 7.55 3.38l.36.19 29.37 16.06-11.33.05c-5.74 3.21-7.32 7.3-4.73 12.27s-.02-.03-.02-.04c-.04-.08-.05-.1-.04-.07l.08.14c-1.58-2.72-4.28-6.49-8.08-11.32-4-5.08-3.13-12.45 1.96-16.45 5.08-4 12.45-3.13 16.45 1.96 4.48 5.69 7.79 10.36 9.92 14.02l.08.14c.06.11.1.17.1.18.12.22.23.42.34.63 4.42 8.49 2.88 14.83-4.62 19.01a11.73 11.73 0 0 1-11.33.05l-29.37-16.06.36.19c-2.38-1.19-3.93-1.92-4.66-2.17 3.55 1.22 6.96.39 10.23-2.49 5.74-5.07 6.2-10.33 1.38-15.78l-.49-.52-3.29-2.31 58.82 27.7.1.05c1.01.49 1.7.8 2.05.93-3.31-1.2-6.6-.58-9.86 1.87-6.13 4.61-6.95 9.93-2.46 15.96l2.65 2.58-69.81-49.11-.21-.15c-4.84-3.57-8.24-6.49-10.2-8.76-1.07-1.24-1.91-2.5-2.53-3.76-3.7-7.65-1.81-13.29 5.67-16.92.7-.34 1.44-.61 2.19-.8 10.47-2.7 20.14-4.15 29-4.35l.38 23.43c-6.84.07-11.46-.06-13.86-.37-6.63-.87-10.37-4.33-11.22-10.36v-.05c-.95-6.91 2.24-11.38 9.56-13.41 1.98-.55 5.46-1.16 10.46-1.85l-.5.08c46.53-8.47 73.15-12.66 79.86-12.55 1.78.03 3.37.29 4.77.77 6.11 2.12 9.34 8.79 7.22 14.91-2.12 6.11-8.8 9.35-14.91 7.23Z" style="fill: rgb(255, 199, 9);"></path><path d="M92.15 203.47c-.78 4.43-2.29 10.69-4.52 18.78l-.13.44c-13.47 42.35-21.45 68.81-23.93 79.38-1.48 6.3-7.78 10.21-14.08 8.73-6.3-1.48-10.21-7.78-8.73-14.08 2.62-11.16 10.75-38.2 24.41-81.13l-.13.44c2.03-7.38 3.38-12.93 4.03-16.63 1.13-6.37 7.2-10.62 13.58-9.5 6.37 1.13 10.62 7.2 9.5 13.58Z" style="fill: rgb(255, 199, 9);"></path><path d="M92.65 211.76c-2.84 6.58-6.06 16-9.67 28.25v.04c-12.16 40.7-18.68 62.79-19.57 66.28l-.23.79v.03l.08-.3c-1.78 5.85-2.77 9.46-2.98 10.82.89-5.9-1.81-9.81-8.12-11.73l.08.02c-2.98-.93-5.85-.7-8.62.69 2.65-1.33 5.71-1.6 8.56-.76l-3.32 11.23 3.31-11.24c-3.49-1.03-6.29-.61-8.42 1.24.2-.18.51-.51.93-1.01l.27-.31c6.2-6.79 23.52-27.57 51.97-62.34.84-1.02 1.84-1.9 2.97-2.59l6.1 10-6.08-10.01c6.79-4.12 12.23-2.83 16.32 3.88l-.02-.03c2.3 3.75 2.38 7.83.24 12.24-1.01 2.08-3.47 6.09-7.37 12.04l.05-.08c-3.66 5.68-10.5 15.21-20.53 28.59l-.26.34c2.68-3.31 3.04-7.01 1.08-11.1l-17.38-4.46 36.66-26.24 6.82 21.24.92-.04c1.13-.09 2.05-.3 2.75-.64-.5.24-1.41.81-2.75 1.72l.06-.04-23.19 16.01.12-.08c-4.39 3.11-8.88 3.71-13.47 1.8a11.715 11.715 0 0 1-6.91-8.17c-.85-3.68.12-7.54 2.61-10.37 7.03-8.01 17.44-16.46 31.23-25.34 5.44-3.5 12.69-1.94 16.19 3.5 3.5 5.44 1.94 12.69-3.5 16.19-11.95 7.7-20.73 14.74-26.32 21.11l-4.3-18.54c-3.39-1.41-6.42-1.18-9.08.71l.12-.08 23.19-16.01.06-.04c2.31-1.57 4.23-2.73 5.78-3.47 1.93-.93 3.78-1.46 5.56-1.6l.92-.04c4.34-.37 9.21 2.77 11.01 7.71 1.8 4.94.08 10.47-4.19 13.53l-36.66 26.24a11.738 11.738 0 0 1-9.73 1.82c-3.35-.86-6.15-3.16-7.65-6.28-2.3-4.81-1.7-9.39 1.83-13.75l-.26.34c9.7-12.94 16.22-22.02 19.59-27.24l.05-.08c3.36-5.12 5.32-8.27 5.89-9.45-1.6 3.3-1.31 6.72.87 10.27l-.02-.03c4.03 6.6 9.31 7.92 15.84 3.95L106 250.88l9.07 7.42c-28.72 35.1-46.32 56.2-52.8 63.3l.27-.31c-1.18 1.39-2.32 2.56-3.4 3.5-4.33 3.77-8.87 4.96-13.6 3.57l3.31-11.24 5.24 10.48c-2.86 1.43-5.81 1.67-8.84.72l.08.02c-6.61-2.01-9.35-6.75-8.22-14.19.38-2.48 1.62-7.19 3.73-14.13l.09-.3v-.03l-.22.79c.97-3.76 7.57-26.14 19.8-67.14v.04c3.86-13.16 7.41-23.46 10.62-30.91 2.56-5.94 9.45-8.68 15.4-6.12 5.94 2.56 8.68 9.45 6.12 15.4Z" style="fill: rgb(255, 199, 9);"></path><path d="M61.49 285.24c24.87-19.15 52.22-38.39 82.06-57.7 5.43-3.52 12.68-1.96 16.2 3.47 3.52 5.43 1.96 12.68-3.47 16.2-29.3 18.96-56.13 37.82-80.49 56.59-5.13 3.95-12.48 2.99-16.43-2.13s-2.99-12.48 2.13-16.43Z" style="fill: rgb(255, 199, 9);"></path><path d="M134.44 235c10.81 5.69 20.44 11.79 28.91 18.3l-.16-.12c9.68 7.18 30.35 23.67 62.01 49.44 5.02 4.09 5.77 11.46 1.69 16.48-4.09 5.02-11.46 5.77-16.48 1.69-31.38-25.56-51.77-41.82-61.17-48.79l-.16-.12c-7.41-5.69-15.92-11.08-25.55-16.15-5.72-3.02-7.92-10.1-4.91-15.83s10.1-7.92 15.83-4.9Z" style="fill: rgb(255, 199, 9);"></path><path d="M144.26 235.26c18.63 13.64 41.24 32.6 67.84 56.88 4.78 4.36 5.12 11.77.75 16.55-4.36 4.78-11.77 5.12-16.55.75-25.98-23.72-47.94-42.14-65.88-55.28-5.22-3.82-6.35-11.15-2.53-16.37 3.82-5.22 11.15-6.35 16.37-2.53Z" style="fill: rgb(255, 199, 9);"></path><path d="m156.96 230.01-1.35-1.61 1.35 1.62c1.1 1.58 3.66 4.35 7.69 8.32l-.18-.17c11.78 11.1 31.35 30.06 58.71 56.88 4.62 4.53 4.7 11.95.17 16.57-4.53 4.62-11.95 4.7-16.57.17-27.26-26.72-46.72-45.58-58.38-56.56l-.18-.17c-5.08-4.99-8.59-8.89-10.53-11.69l1.35 1.61c-5.03-6.93-3.71-14.23 1.61-17.92 5.32-3.68 12.62-2.36 16.3 2.96Z" style="fill: rgb(255, 199, 9);"></path><path d="M228.55 314.43c-1.21-3.39-2.87-9.05-4.98-16.99v.04c-18.48-68.52-28.16-104.88-29.03-109.09-.11-.56-.19-1.06-.24-1.52-.64-6.44 4.05-12.18 10.49-12.82s12.18 4.05 12.82 10.49c-.03-.34-.08-.63-.12-.87.78 3.75 10.35 39.66 28.72 107.71v.04c1.96 7.32 3.43 12.37 4.42 15.15 2.17 6.09-1.01 12.8-7.1 14.97s-12.8-1.01-14.97-7.1Z" style="fill: rgb(255, 199, 9);"></path><path d="M216.23 171.7c.33 2.75.98 6.12 1.96 10.12l.05.23c.9 4.07 3.89 15.97 8.98 35.72v-.03c.53 2.06 3.58 15.05 9.13 38.97 1.46 6.3-2.46 12.6-8.76 14.06-6.3 1.46-12.6-2.46-14.06-8.76-5.51-23.72-8.5-36.51-8.99-38.38v-.03c-5.16-20-8.22-32.18-9.17-36.51l.05.23c-1.18-4.88-2-9.15-2.44-12.81-.78-6.42 3.79-12.26 10.22-13.04 6.42-.78 12.26 3.79 13.04 10.22Z" style="fill: rgb(255, 199, 9);"></path><path d="M204.52 188.08c0 2.95.84 8.13 2.53 15.55l-.03-.12c2.75 11.52 7.09 28.56 13.02 51.11 1.64 6.26-2.1 12.66-8.35 14.31-6.26 1.64-12.66-2.1-14.31-8.35-5.97-22.7-10.35-39.91-13.15-51.63l-.03-.12c-2.08-9.14-3.12-16.06-3.12-20.77 0-6.47 5.25-11.71 11.72-11.71s11.71 5.25 11.71 11.72Z" style="fill: rgb(255, 199, 9);"></path><path d="m194.65 195.04.02.73-.02-.73c.13 2.07.98 5.87 2.54 11.37l-.08-.25c7.77 25.18 13.67 44.8 17.69 58.86 1.78 6.22-1.82 12.71-8.04 14.49-6.22 1.78-12.71-1.82-14.49-8.04-3.98-13.89-9.83-33.35-17.56-58.4l-.08-.25c-2.02-7.12-3.15-12.55-3.39-16.31l-.02-.73c-.38-5.73 4.53-11.29 10.98-11.69 6.46-.4 12.02 4.5 12.42 10.96ZM146.1 106.3c-1.18 0-2.42.13-3.71.39-1.31.27-2.79.69-4.44 1.27v.02c-4.66 1.59-9.24 3.23-13.77 4.93l-.09.02c-2.43.13-4.82 1.03-6.79 2.66l-.09.02c-2.11.82-4.21 1.66-6.3 2.51l-.04.02c-18.74 7.75-30.05 12.95-33.95 15.59-2.34 1.58-4.02 3.45-5.04 5.59v.02a11.583 11.583 0 0 0-1.06 6.37v.1c.88 7.25 4.66 10.88 11.36 10.88.83 0 1.71-.06 2.64-.17l.65-.12.09.02a11.69 11.69 0 0 0 3.88 7.58l-.09.02c-2.49 2.73-4.25 4.87-5.29 6.44v.02c-1.49 2.22-2.33 4.45-2.54 6.69l-.09.02c-1.57 8.4 2.14 13.79 11.12 16.17.89.24 1.83.41 2.82.53h.02c.14.02.29.03.43.05l-.09.02c.54.09 1.1.17 1.69.22v.02c.93.07 2.35.11 4.26.11 3.5 0 8.64-.14 15.43-.41l.09.02-8.29 17.29c-2.55 5.32-.74 11.71 4.21 14.9 1.96 1.26 4.16 1.87 6.35 1.87 3.36 0 6.67-1.44 8.97-4.17l4.23-5.03-.09.02a12.12 12.12 0 0 0 2.94-2.35l33.51-36.77c4.32-4.74 4.03-12.06-.65-16.44a11.674 11.674 0 0 0-8.01-3.17c-3.07 0-6.14 1.2-8.44 3.59-.42.43-1.11 1.12-2.09 2.07l-.09.02c-2.06.43-4.14 1.55-6.24 3.35-.74.64-1.83 1.67-3.25 3.09l-.5.52c-.1.11-.2.23-.3.34v.02c-2.62-2.01-5.89-3.06-9.82-3.15h-.83c-5.09.26-9.52.47-13.32.62v.02l35.3-36.87.05-.05c2.41-2.54 4.21-4.78 5.4-6.73 2.4-3.91 3.12-7.76 2.15-11.53-.63-2.45-2.04-4.62-4-6.2-2.35-1.89-5.1-2.83-8.26-2.83Z" style="fill: rgb(255, 199, 9);"></path><path d="M188.04 155.54c.56.59 1.18 1.12 1.84 1.58l-.09.02c-.66-.43-1.27-.96-1.84-1.59h.09Zm-42.92 2.58-.69.11v.02s.04-.08.06-.11l-.09.02c.21-.02.42-.03.63-.04h.09Zm-31.26 62.24c.08.19.15.39.21.58l-.14.02c-.05-.21-.11-.4-.17-.6h.09Zm.37 2.15Zm57.76-96.94c-5.89 0-21.45 1.91-46.67 5.74l-.09.02c-15.94.73-29.93 2.08-41.96 4.06-2.67.44-5 1.76-6.71 3.62l-.09.02c-6.63.97-11.14 1.77-13.55 2.39a11.716 11.716 0 0 0 4.86 22.9c6.38-1.07 12.47-2.08 18.27-3.03l-.09.02c5.61-.78 12.49-1.67 20.63-2.67l-.09.02 2.41-.02.09.02c-2.42 1.76-5.15 3.71-8.18 5.85-.75.53-1.44 1.15-2.04 1.84-5.71 6.52-5.4 12.56.94 18.11v.02c1.29 1.12 2.79 1.98 4.51 2.6 1.28.46 2.62.69 3.97.69.63 0 1.26-.05 1.89-.15l15.03-2.46.09.02c-.15.24-.29.51-.41.78-1.72 3.63-2.1 6.78-1.13 9.44l-.09.02c-15.76 9.81-25.12 16.03-28.07 18.68v.02c-4.93 4.41-6.21 9.16-3.83 14.26l-.09.02c.84 2.81 2.37 4.93 4.58 6.34l-.09.02-1.58.82a11.713 11.713 0 0 0-5.73 13.79 11.713 11.713 0 0 0 12.46 8.22l37.85-4.1.02.02c8.25-.77 14.16-1.29 17.71-1.57l-.09.02c1.22-.02 2.48-.03 3.79-.06.71-.01 1.43-.09 2.13-.23 3.96-.8 6.74-2.45 8.32-4.95l.09.02c1.16.97 2.38 2.07 3.66 3.31.45.43.93.83 1.43 1.18l-.09.02c2.92 2.87 11.73 13.21 26.41 31.01 2.31 2.8 5.66 4.26 9.04 4.26 2.36 0 4.74-.71 6.8-2.18 5.01-3.58 6.4-10.42 3.17-15.66-4.62-7.52-23.11-31.41-55.48-71.67l-.09.02c2.69-1.63 5.47-3.32 8.36-5.05 1.02-.61 1.94-1.38 2.73-2.27 2.93-3.31 3.92-7 2.97-11.07v-.03c-.38-1.6-.9-2.99-1.55-4.17l-.09.02c2.85-4.26 3.11-8.27.78-12.02l-.09.02c-.76-2.09-1.95-3.72-3.56-4.92l-.09.02c.5-.01.98-.02 1.46-.02 7.29 0 12.21.19 14.75.58l-.09.02c1.58.75 3.33 1.15 5.11 1.15s3.58-.41 5.28-1.26c5.77-2.92 8.08-9.97 5.16-15.75-1.81-3.58-5-5.87-9.57-6.88-1.76-.39-4.57-.68-8.42-.87l-.09.02c-1.43-5.09-5.12-7.96-11.09-8.62-1.16-.13-2.71-.2-4.66-.23l-.09.02s-.09-.02-.13-.02l-.02.02c-.28-.02-.59-.04-.94-.04Z" style="fill: rgb(255, 199, 9);"></path><path d="M89.2 161.21c-4.55-2.68-15.77-6.11-33.66-10.31-5.31-1.25-9.06-5.99-9.04-11.45s3.81-10.18 9.13-11.38c17.43-3.95 39.64-3.73 66.64.65l1.01.21c.18.05.34.09.49.13h-.01c8.79 2.43 12.16 7.62 10.13 15.57-1.01 3.93-3.65 6.92-7.92 8.98-.51.25-1.05.49-1.63.72-1.06.43-2.18.7-3.32.8l-33.66 3.1-.41.03c-.07 0-.12 0-.16.01 5.75-.66 8.43-4.35 8.04-11.07v-.02c-.12-2.01-.73-3.79-1.83-5.35.62.88 1.12 1.85 1.48 2.87-1.08-3.07-2.82-5.06-5.22-5.96.59.22 1.81.51 3.65.85l-.57-.09c20.71 2.84 32.79 4.71 36.24 5.61h-.02c.74.19 1.4.4 1.99.64l-2.14-.63c1.27.25 2.45.56 3.56.93 6.28 2.13 10.07 6.09 11.38 11.85l.15.78c.63 4.06-.3 8.07-2.8 12.01-1.36 2.15-3.24 4.32-5.63 6.52l-.94.78c-24.51 18.19-38.19 29.41-41.04 33.67.53-.79.87-1.87 1.03-3.26-.14 1.21-.46 2.39-.96 3.49s-.02.04-.02.03v-.02c1.82-4.31.26-7.57-4.66-9.79-.46-.2-.84-.33-1.13-.37.13.02.35.03.65.02 4-.03 7.73 1.97 9.91 5.32s2.51 7.58.86 11.22v.02c3.2-7.06 1.27-12.18-5.79-15.36-1.76-.79-3.4-1.11-4.92-.96 2.74-.28 12.7-2.72 29.86-7.33l.5-.12c8.33-1.84 13.56 1.05 15.71 8.68a11.72 11.72 0 0 1-3.11 11.57l-.16.15-.03.03.16-.15c-13.23 12.88-26.3 26.79-39.2 41.72l1.83-2.87c3.08-6.87 1.12-11.86-5.87-14.99-2.9-1.3-5.55-1.44-7.94-.42h-.01c.09-.04.26-.11.48-.23l.11-.05c-.24.12-.43.22-.59.32h.02c1.09-.68 5.04-3.45 11.84-8.32l.13-.09c.26-.18.52-.35.76-.51 7.06-4.55 12.79-3.64 17.19 2.73l-.03-.04c2.45 3.52 2.86 7.33 1.22 11.42l.39-1.13c-.32 1.12-.78 2.27-1.37 3.43-.82 1.62-1.96 3.38-3.43 5.3l-.02.03-16.21 21.06.09-.12s-.06.08-.08.1c1.63-2.42 1.69-5.33.18-8.74l-11.12-6.96c-.94.03-1.7.17-2.27.4 8.49-3.52 41.24-32.5 98.24-86.97l-.92.98c.27-.33.46-.57.55-.72-2.77 4.33-1.81 8.45 2.89 12.35 2.13 1.77 4.23 2.54 6.29 2.3-.56.06-1.56.33-3.03.8l1.06-.4c-14.01 6.06-24.74 11.86-32.18 17.39-5.19 3.86-12.53 2.78-16.39-2.41-3.86-5.19-2.78-12.53 2.41-16.39 8.9-6.62 21.19-13.32 36.86-20.1l1.06-.4c2.91-.94 5.4-1.53 7.46-1.77 4.59-.54 8.4.44 11.41 2.95 5.91 4.91 6.53 11 1.88 18.28-.62.97-1.38 2-2.28 3.08l-.92.98c-59.12 56.48-94.28 87.04-105.47 91.67-2.04.84-4 1.3-5.88 1.37-4.78.17-9.18-2.59-11.12-6.96-1.99-4.48-1.39-9.09 1.8-13.83.24-.35.49-.71.77-1.08l.09-.12 16.21-21.06-.02.03c.6-.79.99-1.35 1.16-1.69-.09.18-.18.43-.27.75l.39-1.13c-1.49 3.73-1.06 7.29 1.31 10.68l-.03-.04c4.2 6.08 9.13 7.29 14.79 3.64s-.04.03-.07.05l.13-.09c-7.26 5.2-11.68 8.28-13.26 9.25h.02c-.45.27-.87.5-1.27.7l.11-.05c-.7.35-1.34.66-1.93.91h-.01c-3.87 1.65-7.46 1.73-10.77.24-7.27-3.26-9.25-8.58-5.94-15.97.47-1.05 1.08-2.01 1.83-2.87 13.35-15.45 26.88-29.85 40.58-43.19l.16-.15.03-.03-3.26 11.72c1.85 6.57 5.82 9.19 11.91 7.84l.5-.12c-18.38 4.93-29.56 7.59-33.54 8-2.67.27-5.04-.06-7.11-.99-7.22-3.25-9.19-8.48-5.93-15.68l10.77 16.55c-1.44.01-2.79-.07-4.04-.24-1.95-.27-3.72-.76-5.32-1.48-8.96-4.03-11.4-10.91-7.32-20.64v-.02c.09-.2.17-.38.25-.55l-.96 3.49c.27-2.38 1.19-4.75 2.77-7.12 4.35-6.51 19.87-19.67 46.55-39.47l-.94.78c.87-.8 1.43-1.4 1.68-1.79-.64 1.02-.83 2.39-.55 4.13l.15.78c.62 2.76 1.93 4.48 3.93 5.16-.09-.03-.25-.07-.46-.11-.73-.14-1.45-.35-2.14-.63.33.13.61.23.84.29h-.02c-2.54-.67-13.69-2.36-33.46-5.06l-.57-.09c-3.17-.6-5.69-1.24-7.55-1.94-4.45-1.66-7.34-4.41-8.68-8.23l1.48 2.88c-1.46-2.08-2.27-4.33-2.41-6.76v-.02c-.46-8.01 3.76-12.53 12.66-13.55.48-.05.98-.1 1.5-.13l-.41.03 33.66-3.1-3.32.8c.12-.05.2-.08.25-.11-2.27 1.1-3.8 3.2-4.6 6.31-1.76 6.9.34 11.17 6.31 12.83h-.01.02l1.01.21c-24-3.89-43.24-4.2-57.72-.92l.09-22.83c20.2 4.74 33.59 9.05 40.18 12.92 5.58 3.28 7.44 10.46 4.16 16.04-3.28 5.58-10.46 7.44-16.04 4.16Z" style="fill: rgb(255, 199, 9);"></path></svg>